<?xml version="1.0" encoding="UTF-8" standalone="no"?>
<!-- Created with Make The Cut! -->

<svg
   xmlns:mtc="http://www.make-the-cut.com/namespaces/make-the-cut"
   xmlns:dc="http://purl.org/dc/elements/1.1/"
   xmlns:cc="http://creativecommons.org/ns#"
   xmlns:rdf="http://www.w3.org/1999/02/22-rdf-syntax-ns#"
   xmlns:svg="http://www.w3.org/2000/svg"
   xmlns="http://www.w3.org/2000/svg"
   xmlns:sodipodi="http://sodipodi.sourceforge.net/DTD/sodipodi-0.dtd"
   xmlns:inkscape="http://www.inkscape.org/namespaces/inkscape"
   mtc:dpi="90"
   version="1.1"
   width="474.36499"
   height="634.64374"
   viewBox="0 0 474.36471 634.64382"
   id="svg2"
   inkscape:version="0.48.5 r10040"
   sodipodi:docname="d62d9_the_greatest_teacher.svg">
  <metadata
     id="metadata10">
    <rdf:RDF>
      <cc:Work
         rdf:about="">
        <dc:format>image/svg+xml</dc:format>
        <dc:type
           rdf:resource="http://purl.org/dc/dcmitype/StillImage" />
      </cc:Work>
    </rdf:RDF>
  </metadata>
  <defs
     id="defs8" />
  <sodipodi:namedview
     pagecolor="#ffffff"
     bordercolor="#666666"
     borderopacity="1"
     objecttolerance="10"
     gridtolerance="10"
     guidetolerance="10"
     inkscape:pageopacity="0"
     inkscape:pageshadow="2"
     inkscape:window-width="640"
     inkscape:window-height="480"
     id="namedview6"
     showgrid="false"
     inkscape:zoom="0.37193532"
     inkscape:cx="237.182"
     inkscape:cy="317.31296"
     inkscape:window-x="0"
     inkscape:window-y="0"
     inkscape:window-maximized="0"
     inkscape:current-layer="Clipboard Trace" />
  <g
     inkscape:groupmode="layer"
     label="Clipboard Trace"
     id="Clipboard Trace"
     transform="translate(0.06936282,0.07132683)">
    <path
       label="Trace Path: 164* (W)"
       id="Trace Path: 164* (W)"
       d="m 406.79,95.8755 c -0.611,-0.3872 1.071,-0.6868 1.953,-0.348 0.554,0.2124 -0.019,0.5461 -0.938,0.5461 -0.386,0 -0.843,-0.0891 -1.015,-0.1981 z m -264.816,4.8755 c -0.285,-0.056 -1.039,-0.569 -1.675,-1.1401 -0.635,-0.5715 -1.615,-1.3116 -2.176,-1.6447 l -1.021,-0.6056 1.055,0.1477 c 0.58,0.0812 1.307,0.2105 1.614,0.2872 0.533,0.1327 0.552,0.0979 0.4,-0.7143 -0.188,-1.0002 -0.192,-0.9993 1.69,-0.3636 1.748,0.59 1.736,0.5301 0.258,1.2789 -1.422,0.7203 -1.282,1.0844 0.709,1.8574 1.311,0.5081 1.451,0.7011 0.661,0.9131 -0.552,0.148 -0.671,0.147 -1.515,-0.016 z M 405.295,98.6 c -0.233,-0.1481 -0.174,-0.2354 0.235,-0.3448 1.148,-0.3074 2.674,-0.0916 2.407,0.3404 -0.164,0.2655 -2.224,0.2689 -2.642,0.0044 z m -185.602,8.815 c -2.361,-1.71 -5.521,-7.4422 -4.463,-8.0958 0.465,-0.2874 6.714,3.1028 9.259,5.0238 1.432,1.08 1.555,1.662 0.517,2.444 -1.866,1.406 -3.906,1.647 -5.313,0.628 z m 184.978,-5.918 c 0,-0.271 0.59,-0.494 1.308,-0.494 0.714,0 0.74,0.367 0.039,0.555 -0.766,0.205 -1.347,0.179 -1.347,-0.061 z m -256.384,4.037 c -0.077,-0.199 -0.547,-0.57 -1.046,-0.825 -1.633,-0.832 -2.109,-3.511 -1.016,-5.713 1.083,-2.1847 5.848,-2.7847 5.848,-0.7365 0,1.0001 -0.6,1.2622 -1.47,0.6425 -1.406,-1.0007 -2.05,-0.6284 -2.505,1.448 -0.08,0.366 -0.53,1.017 -1,1.447 -1.023,0.937 -0.839,1.374 0.681,1.617 1.895,0.303 3.089,1.497 2.169,2.17 -0.576,0.421 -1.491,0.393 -1.661,-0.05 z m -19.505,-0.195 c 0,-1.279 -0.006,-1.289 -0.71,-1.289 -0.9,0 -1.113,-0.515 -0.522,-1.266 l 0.453,-0.576 1.21,0.691 c 1.415,0.808 1.463,1.067 0.482,2.595 -0.906,1.412 -0.913,1.411 -0.913,-0.155 z m 23.631,4.511 c -0.953,-1.457 -1.008,-2.871 -0.112,-2.871 0.576,0 1.503,2.492 1.243,3.34 -0.191,0.625 -0.499,0.497 -1.131,-0.469 z m 3.72,-1.012 c -0.748,-0.748 -0.12,-1.767 0.788,-1.281 0.575,0.308 0.649,1.301 0.113,1.507 -0.496,0.19 -0.481,0.194 -0.901,-0.226 z m -25.33,2.898 c -0.541,-0.315 -0.521,-0.843 0.044,-1.145 1.228,-0.657 2.919,0.276 1.853,1.023 -0.609,0.426 -1.297,0.471 -1.897,0.122 z m 25.646,0.447 c -0.712,-0.713 -0.839,-1.067 -0.464,-1.299 0.286,-0.176 1.889,1.229 1.889,1.657 0,0.544 -0.698,0.369 -1.425,-0.358 z m 115.207,5.201 c -1.307,-0.267 -3.03,-1.79 -3.392,-2.998 -0.349,-1.165 0.209,-2.238 1.046,-2.01 0.279,0.076 1.86,0.299 3.513,0.495 3.724,0.442 4.611,0.769 4.611,1.699 0,1.628 -3.424,3.296 -5.778,2.814 z m -118.788,8.571 c -0.89,-0.988 -2.418,-3.416 -3.294,-5.235 -1.271,-2.642 -2.105,-2.932 -5.402,-1.879 -2.403,0.768 -2.439,0.756 -1.288,-0.416 1.125,-1.147 1.186,-1.383 0.477,-1.853 -0.297,-0.198 -0.437,-0.453 -0.338,-0.615 0.717,-1.159 5.747,1.852 6.932,4.15 0.24,0.466 0.804,1.2 1.253,1.631 0.868,0.834 2.358,3.765 2.23,4.391 -0.062,0.306 -0.165,0.275 -0.57,-0.174 z m -3.207,-0.771 c -0.259,-0.864 -0.432,-1.611 -0.383,-1.659 0.194,-0.194 1.301,2.023 1.301,2.606 0,1.111 -0.435,0.662 -0.918,-0.947 z m -8.84,3.061 c -0.277,-0.447 0.48,-0.992 1.422,-1.022 1.052,-0.035 1.34,0.455 0.464,0.788 -1.167,0.444 -1.715,0.512 -1.886,0.234 z m 15.881,4.717 c 0,-1.827 2.824,-2.927 4.14,-1.611 0.588,0.588 0.031,1.116 -1.181,1.12 -1.401,0.004 -1.925,0.198 -2.267,0.837 -0.439,0.821 -0.692,0.695 -0.692,-0.346 z m 10.986,2.315 c -2.638,-0.499 -2.672,-1.099 -0.123,-2.192 3.73,-1.599 8.521,-1.47 9.797,0.263 0.507,0.688 0.397,1.459 -0.249,1.743 -0.451,0.199 -8.514,0.358 -9.425,0.186 z m -17.636,47.827 c -2.628,-0.914 -3.205,-4 -1,-5.344 2.047,-1.248 3.5,0.028 3.551,3.118 0.037,2.23 -0.698,2.871 -2.551,2.226 z m 165.163,86.04 c -2.872,-1.474 -6.857,-7.601 -7.279,-11.191 -0.495,-4.208 2.463,-3.739 5.396,0.856 3.248,5.089 4.443,11.649 1.883,10.335 z m 93.186,257.997 c -2.81,-0.754 -3.431,-1.958 -9.998,-19.351 -2.566,-6.797 -4.327,-10.858 -5.756,-13.275 l -1.043,-1.764 0,-2.559 0,-2.559 -0.586,0 c -0.486,0 -0.586,-0.112 -0.586,-0.66 0,-1.261 -0.765,-3.238 -3.552,-9.177 -5.871,-12.508 -6.717,-15.58 -4.872,-17.681 1.957,-2.229 4.598,-0.491 7.706,5.069 0.813,1.454 2.037,3.501 2.72,4.548 1.284,1.967 2.49,4.223 2.805,5.245 0.1,0.322 1.024,2.432 2.054,4.688 3.782,8.28 14.055,32.049 16.066,37.172 1.604,4.084 2.01,5.697 1.709,6.787 -0.709,2.565 -3.913,4.256 -6.667,3.517 z M 103.315,54.063 c -0.182,-0.728 -0.076,-1.3498 0.242,-1.4125 0.319,-0.0627 0.446,1.4767 0.148,1.7753 -0.162,0.1617 -0.287,0.0449 -0.39,-0.3628 z m 3.459,4.0434 c -0.317,-0.9072 -0.329,-1.5337 -0.035,-1.7156 0.286,-0.1769 0.629,0.4701 0.837,1.5791 0.212,1.1294 -0.419,1.2368 -0.802,0.1365 z m 22.082,8.6018 c -1.641,-0.498 -1.984,-1.0224 -1.158,-1.7699 0.615,-0.5562 0.591,-0.8579 -0.117,-1.5235 -0.917,-0.8617 -0.713,-0.9425 1.113,-0.4404 2.429,0.6678 2.783,1.0785 1.787,2.074 -0.748,0.7483 -0.603,1.4133 0.309,1.4133 0.104,0 0.189,0.1055 0.189,0.2344 0,0.271 -1.246,0.2781 -2.123,0.0121 z m -6.454,-0.4045 c -0.615,-0.4343 -1.116,-0.5744 -2.051,-0.5744 -1.769,0 -1.498,-0.668 0.657,-1.6212 2.543,-1.125 3.639,-0.8069 3.899,1.132 0.227,1.6919 -0.923,2.1802 -2.505,1.0636 z m -10.231,1.4428 c 0,-0.2708 0.59,-0.4938 1.308,-0.4938 0.714,0 0.74,0.3677 0.039,0.5554 -0.766,0.2053 -1.347,0.1787 -1.347,-0.0616 z m 5.765,4.7638 c -1.093,-0.4209 -1.514,-2.9944 -0.652,-3.9848 l 0.572,-0.6576 0.525,0.5183 c 1.088,1.0727 0.711,4.5694 -0.445,4.1241 z m 16.53,-3.1119 c 0,-0.7067 1.68,-1.5948 2.01,-1.0622 0.22,0.357 -0.931,1.3774 -1.555,1.3774 -0.25,0 -0.455,-0.1418 -0.455,-0.3152 z m -4.293,4.5564 c -0.941,-0.5735 -0.934,-1.2432 0.021,-1.9534 1.304,-0.9697 9.193,-0.7933 9.193,0.2057 0,1.4973 -7.341,2.8898 -9.214,1.7477 z m 11.646,2.5695 c 0,-0.8455 0.097,-1.5372 0.216,-1.5372 0.319,0 0.548,1.3011 0.371,2.1067 -0.284,1.2927 -0.587,0.999 -0.587,-0.5695 z m -14.52,9.4964 c -2.039,-2.0395 1.188,-3.7886 5.251,-2.8456 1.403,0.3256 2.016,1.6273 1.244,2.6426 -0.889,1.1707 -5.387,1.3113 -6.495,0.203 z m 199.387,8.4312 c -0.965,-0.2392 -3.868,-0.6432 -6.452,-0.8978 -7.168,-0.7065 -7.23,-0.7778 -3.142,-3.6501 2.492,-1.7513 3.731,-3.5461 3.731,-5.4038 0,-0.1511 0.259,-0.5538 0.575,-0.8949 2.366,-2.5538 8.542,4.1294 8.561,9.2654 0.008,2.1524 -0.324,2.3123 -3.273,1.5812 z M 122.793,87.0258 c -0.644,-0.8192 -0.613,-1.6198 0.09,-2.3228 1.507,-1.5077 3.352,0.7492 1.897,2.3202 -0.729,0.7865 -1.37,0.7874 -1.987,0.0026 z m 24.286,2.2438 c -0.248,-0.1574 -0.117,-0.253 0.507,-0.3702 1.018,-0.1909 2.058,0.061 1.559,0.3773 -0.422,0.2675 -1.638,0.2633 -2.066,-0.0071 z m -17.067,1.9144 c 0,-0.2708 0.591,-0.4938 1.309,-0.4938 0.714,0 0.74,0.3677 0.039,0.5554 -0.766,0.2053 -1.348,0.1787 -1.348,-0.0616 z M 335.24,103.32 c -1.18,-1.421 1.433,-3.013 9.606,-5.8534 5.877,-2.0421 8.438,-3.3376 8.438,-4.2684 0,-0.5099 -0.887,-0.3656 -4.577,0.7452 -8.34,2.5096 -11.387,2.9835 -11.555,1.7967 -0.309,-2.1816 9.251,-6.3582 14.572,-6.3665 4.683,-0.0073 10.935,4.7069 9.958,7.5089 -0.31,0.8901 -1.099,1.1637 -4.05,1.4048 -4.784,0.3909 -10.159,1.6665 -16.864,4.0017 -4.135,1.441 -5.047,1.611 -5.528,1.031 z M 117.422,555.148 c -1.06,-0.618 -1.476,-4.472 -0.593,-5.488 1.527,-1.758 6.598,-0.023 6.598,2.258 0,2.197 -4.046,4.372 -6.005,3.23 z m 314.875,0.024 c -3.457,-1.628 -2.005,-6.007 1.993,-6.007 3.875,0 5.312,4.013 2.009,5.613 -1.69,0.818 -2.858,0.933 -4.002,0.394 z m -92.004,6.448 c -0.907,-0.907 0.443,-9.592 1.491,-9.592 1.072,0 2.402,9.107 1.422,9.73 -0.576,0.366 -2.501,0.275 -2.913,-0.138 z m -171.467,0.242 c -0.808,-0.324 -0.855,-0.729 -0.442,-3.822 0.401,-3.01 0.971,-5.309 1.315,-5.309 0.532,0 1.651,5.215 1.651,7.691 0,1.421 -1.062,2.028 -2.524,1.44 z m 92.397,43.075 c -2.894,-0.359 -3.349,-0.987 -3.181,-4.393 0.187,-3.796 0.658,-4.294 4.226,-4.47 4.205,-0.208 6.468,0.659 7.941,3.043 2.04,3.299 -2.998,6.562 -8.986,5.82 z m -142.173,9.931 c -0.643,-0.485 0.301,-5.983 1.895,-11.044 0.843,-2.678 1.627,-1.221 3.006,5.589 0.877,4.331 0.841,4.679 -0.53,5.152 -1.645,0.567 -3.823,0.718 -4.371,0.303 z M 262.464,268.554 c -3.993,-1.201 -5.911,-2.946 -4.401,-4.003 1.104,-0.773 2.989,0.005 5.431,2.243 2.42,2.218 2.131,2.711 -1.03,1.76 z m 4.301,-1.213 c -0.446,-0.446 -0.374,-0.992 0.177,-1.339 0.549,-0.345 1.228,0.308 1.015,0.978 -0.204,0.645 -0.744,0.808 -1.192,0.361 z m 3.141,1.1 c -1.364,-0.336 -0.313,-1.754 1.189,-1.605 0.991,0.098 1.463,0.805 0.802,1.201 -0.725,0.434 -1.352,0.561 -1.991,0.404 z m -9.55,17.898 c -0.326,-0.788 -0.133,-1.961 0.3,-1.82 0.465,0.151 0.896,1.279 0.735,1.921 -0.201,0.802 -0.68,0.755 -1.035,-0.101 z m 24.157,16.666 c -0.796,-1.669 -0.302,-2.823 0.707,-1.651 0.413,0.48 0.541,0.874 0.488,1.5 -0.096,1.158 -0.68,1.231 -1.195,0.151 z m -7.33,23.417 c -0.519,-0.38 -0.648,-2.309 -0.186,-2.772 0.238,-0.237 0.391,-0.2 0.785,0.193 0.993,0.993 0.447,3.343 -0.599,2.579 z m 95.673,34.917 c -0.326,-0.788 -0.133,-1.961 0.3,-1.82 0.464,0.151 0.896,1.279 0.735,1.921 -0.201,0.802 -0.68,0.755 -1.035,-0.101 z m 19.326,33.646 c -2.567,-2.924 -5.932,-14.104 -5.582,-18.55 0.254,-3.226 4.581,-9.212 6.659,-9.212 1.796,0 5.844,18.061 4.98,22.222 -0.985,4.747 -4.184,7.673 -6.057,5.54 z m -15.805,-22.242 c -1.915,-0.867 -2.218,-2.083 -0.649,-2.601 1.584,-0.522 2.898,0.06 2.898,1.284 0,1.432 -0.87,1.941 -2.249,1.317 z m -47.919,18.216 c -2.479,-0.529 -3.849,-2.009 -4.526,-4.889 -1.354,-5.757 5.027,-8.332 11.059,-4.461 2.845,1.826 5.803,6.912 4.582,7.879 -1.293,1.024 -8.648,1.997 -11.115,1.471 z m 63.692,33.023 c -1.941,-0.545 -2.378,-2.225 -2.125,-8.163 0.583,-13.629 2.622,-17.226 9.493,-16.747 2.897,0.202 3.71,0.835 3.937,3.065 0.443,4.374 -3.265,17.132 -5.886,20.247 -1.126,1.338 -3.67,2.089 -5.419,1.598 z m 11.743,23.964 c -0.299,-0.458 -0.422,-1.658 -0.593,-5.801 -0.119,-2.874 -0.373,-7.439 -0.565,-10.146 -0.481,-6.763 -0.471,-7.06 0.295,-8.572 1.296,-2.557 3.922,-3.029 6.239,-1.119 1.808,1.49 1.628,3.271 -0.449,4.444 -1.524,0.86 -1.534,0.902 -1.035,4.32 0.99,6.776 1.09,14.246 0.21,15.701 -0.947,1.567 -3.386,2.264 -4.102,1.173 z m -58.373,2.999 c -0.458,-0.554 -0.352,-2.56 0.375,-7.107 1.062,-6.637 1.017,-9.34 -0.16,-9.566 -0.593,-0.114 -0.828,0.549 -1.62,4.568 -1.555,7.89 -2.66,8.665 -7.706,5.407 -3.741,-2.416 -4.248,-4.248 -2.642,-9.553 1.137,-3.759 2.144,-7.437 3.943,-14.414 3.066,-11.884 4.564,-14.689 7.136,-13.36 3.082,1.594 7.788,16.239 8.133,25.313 0.297,7.807 -5.16,21.496 -7.459,18.712 z m -119.69,74.258 c -0.168,-0.169 -0.182,-0.538 -0.04,-1.113 0.61,-2.472 0.917,-4.193 1.242,-6.955 0.198,-1.675 0.36,-3.099 0.361,-3.164 0.001,-0.064 1.61,-0.085 3.576,-0.045 4.182,0.084 4.708,-0.078 4.093,-1.261 -0.843,-1.622 -2.141,-2.302 -7.115,-3.729 -9.217,-2.645 -13.957,-5.307 -13.585,-7.63 0.342,-2.142 2.26,-4.738 4.658,-6.304 2.382,-1.557 3.197,-1.176 4.537,2.12 2.812,6.922 4.797,7.75 12.36,5.162 2.209,-0.757 4.774,-1.503 5.699,-1.659 1.77,-0.299 1.664,-0.314 5.701,0.815 2.166,0.606 7.824,0.877 15.352,0.734 10.949,-0.208 11.746,-0.506 14.419,-5.403 1.849,-3.385 2.581,-3.7 3.955,-1.701 2.379,3.457 3.567,3.29 9.751,-1.371 1.804,-1.36 4.262,-3.061 5.461,-3.78 3.04,-1.824 3.424,-2.458 3.39,-5.596 -0.079,-7.204 -2.281,-10.807 -7.961,-13.025 -4.401,-1.719 -4.754,-4.56 -1.034,-8.333 6.631,-6.729 25.688,-8.735 27.733,-2.92 0.892,2.535 -0.496,12.261 -1.992,13.962 -0.627,0.713 -2.224,1.058 -4.903,1.058 l -1.858,0 0.163,3.001 c 0.22,4.041 -0.183,6.057 -1.899,9.496 -5.019,10.057 -12.947,16.741 -26.475,22.32 -8.489,3.5 -15.476,5.879 -22.735,7.74 -2.836,0.727 -8.32,2.265 -12.187,3.417 -12.736,3.794 -19.645,5.186 -20.667,4.164 z m -92.097,0.76 c -9.539,-0.1 -20.061,-0.26 -23.382,-0.356 l -6.038,-0.175 -1.678,-2.142 c -4.4165,-5.636 -15.1381,-16.668 -26.2169,-26.976 -9.3472,-8.696 -9.6213,-9.046 -11.1186,-14.188 -2.9296,-10.061 -4.2772,-11.828 -6.1308,-8.039 -1.4932,3.052 -0.4975,8.209 3.9503,20.461 4.0249,11.086 5.7792,13.089 21.3954,24.424 8.8517,6.425 8.8794,6.368 -3.0172,6.223 -9.8712,-0.12 -10.0461,-0.152 -13.6823,-2.507 -1.1925,-0.773 -3.1437,-1.852 -4.3359,-2.397 -3.7918,-1.736 -4.152,-2.155 -6.4793,-7.523 -2.3238,-5.361 -2.9486,-5.999 -6.702,-6.848 -7.9102,-1.787 -9.4579,-3.834 -7.9783,-10.552 0.3859,-1.752 0.7003,-4.139 0.8337,-6.328 0.504,-8.27 0.8385,-9.229 5.8212,-16.69 4.1764,-6.254 4.5378,-6.557 8.2036,-6.884 3.6102,-0.323 3.9546,-1.145 2.8425,-6.787 -0.7554,-3.833 -0.6804,-3.963 4.9624,-8.598 3.6936,-3.034 8.6147,-7.478 8.7915,-7.939 0.0665,-0.173 -0.5266,-1.706 -1.3179,-3.406 -3.6353,-7.811 -3.2881,-9.574 1.8863,-9.578 3.3603,-0.002 3.7031,0.348 4.3284,4.421 0.4952,3.226 0.6856,3.501 2.6123,3.772 2.3106,0.326 2.5729,0.886 1.0045,2.147 -1.1978,0.962 -1.213,1.564 -0.1095,4.336 2.0641,5.186 4.3223,8.913 5.6664,9.352 2.0759,0.679 2.9663,2.819 4.1895,10.069 0.5073,3.007 0.9498,3.507 3.9424,4.458 4.1533,1.319 4.4893,2.385 2.6165,8.312 -0.8461,2.678 -0.8067,3.32 0.2571,4.197 4.8437,3.992 12.9787,3.895 15.6797,-0.188 1.186,-1.791 0.441,-2.347 -3.18,-2.371 -4.636,-0.032 -5.048,-0.598 -2.958,-4.057 3.306,-5.472 2.997,-8.189 -1.691,-14.856 -1.156,-1.646 -3.474,-5.168 -5.15,-7.828 -3.1079,-4.933 -4.1564,-6.456 -7.3612,-10.69 -0.9998,-1.321 -2.2305,-3.219 -2.735,-4.219 -0.9441,-1.87 -2.3553,-3.392 -6.5342,-7.045 -2.0691,-1.808 -2.7457,-2.921 -3.2419,-5.333 -0.5219,-2.535 -1.0095,-3.391 -3.2765,-5.747 -3.3635,-3.497 -3.0636,-4.115 3.0567,-6.306 5.9366,-2.125 6.597,-2.974 2.3524,-3.022 -5.0476,-0.058 -6.8034,0.75 -11.3496,5.219 -1.8788,1.847 -3.6604,3.486 -3.9591,3.642 -1.7559,0.92 -3.8052,-3.378 -3.5912,-7.533 0.0479,-0.931 0.7741,-1.211 3.021,-1.164 l 1.9336,0.04 0,-9.277 0,-9.277 -4.0018,0.079 c -4.9067,0.097 -4.7824,0.174 -4.5861,-2.851 0.0934,-1.438 0.3929,-2.79 1.0774,-4.861 1.3277,-4.017 1.3022,-4.303 -0.5849,-6.553 -1.4195,-1.693 -3.389,-5.086 -3.389,-5.84 0,-0.563 -0.3975,-0.36 -1.9186,0.98 -2.2924,2.02 -2.5913,2.129 -3.524,1.295 -1.2237,-1.094 -1.0979,-2.721 0.5363,-6.935 1.6725,-4.313 1.6814,-5.006 0.1145,-8.906 -1.8845,-4.691 -1.7535,-5.273 1.562,-6.94 3.5492,-1.785 3.6618,-2.344 0.7521,-3.732 -3.4477,-1.646 -4.4981,-4.138 -3.8641,-9.169 1.0128,-8.036 3.3329,-10.235 8.2999,-7.866 5.7187,2.728 7.4611,5.035 7.9036,10.464 0.304,3.729 0.2771,3.686 2.5602,4.131 3.3191,0.648 2.6818,2.4 -1.884,5.178 -4.0725,2.479 -3.9965,3.025 0.3917,2.814 3.6232,-0.174 3.6032,-0.185 4.0427,2.239 0.1574,0.868 0.5905,1.889 1.2332,2.907 l 0.9906,1.568 -0.8468,1.664 c -1.2904,2.535 -1.2659,2.934 0.2948,4.81 1.9084,2.293 1.9861,2.811 0.934,6.229 -1.0733,3.487 -1.0448,3.544 1.2891,2.582 2.9194,-1.202 4.391,-0.234 9.3158,6.131 6.6584,8.605 8.0149,12.626 4.8175,14.279 -1.9308,0.999 -6.569,0.41 -9.5125,-1.207 -3.5409,-1.945 -2.4101,0.629 2.1252,4.838 1.3339,1.238 2.5897,2.704 3.5674,4.167 0.8299,1.241 2.5594,3.408 3.8433,4.815 4.0343,4.421 4.1503,4.922 1.8471,7.973 -4.8795,6.466 -3.8239,10.255 1.4962,5.37 3.2766,-3.008 3.7978,-2.452 4.533,4.841 0.6761,6.705 1.1952,7.331 3.5962,4.336 1.968,-2.456 2.519,-2.345 4.442,0.896 1.275,2.151 4.041,5.18 7.252,7.942 4.507,3.877 7.185,7.786 7.2,10.51 0.021,3.695 -1.717,2.545 -5.031,-3.328 -1.918,-3.399 -3.908,-4.788 -7.226,-5.044 -3.677,-0.283 -3.732,1.824 -0.233,9.01 2.255,4.633 3.166,5.263 6.901,4.775 0.948,-0.123 2.111,-0.132 2.695,-0.019 0.565,0.109 1.102,0.203 1.195,0.208 0.972,0.06 2.44,2.31 3.943,6.047 1.824,4.534 3.502,6.392 9.367,10.37 5.961,4.043 6.543,4.842 5.514,7.574 -1.26,3.347 -0.679,4.548 2.753,5.688 3.725,1.238 4.026,2.097 2.63,7.496 -1.839,7.113 -0.78,8.756 7.453,11.562 4.04,1.377 5.818,2.27 8.719,4.378 7.323,5.323 11.026,7.111 18.398,8.882 4.263,1.024 5.61,0.823 11.831,-1.765 9.562,-3.978 13.374,-3.5 20.989,2.631 2.436,1.962 7.727,7.337 7.727,7.85 0,0.523 -1.682,0.795 -6.328,1.023 -6.228,0.306 -58.007,0.46 -79.336,0.237 z m 231.152,0.167 c -4.176,-0.208 -7.444,-0.595 -8.132,-0.963 -0.742,-0.397 -1.242,-3.337 -2.045,-12.045 -2.267,-24.557 -2.151,-28.732 0.879,-31.749 5.426,-5.403 12.261,-4.518 20.666,2.677 3.033,2.596 3.83,3.173 4.387,3.173 0.406,0 0.492,0.184 0.579,1.232 0.077,0.939 0.607,2.288 2.231,5.683 7.971,16.669 11.944,27.857 10.879,30.632 -0.473,1.232 -1.385,1.326 -14.039,1.448 -6.281,0.061 -13.213,0.021 -15.405,-0.088 z m -35.954,0.017 c -1.51,-0.468 -1.338,-1.049 3.05,-10.288 4.865,-10.24 6.56,-14.621 8.417,-21.751 1.474,-5.657 2.353,-7.191 3.706,-6.466 3.348,1.791 -1.623,36.515 -5.456,38.116 -0.865,0.362 -8.783,0.679 -9.717,0.389 z m 17.984,0.102 c -1.34,-0.282 -2.251,-0.788 -2.978,-1.653 -0.771,-0.915 -0.767,-1.148 0.071,-4.057 0.912,-3.17 1.485,-6.078 2.36,-11.988 1.352,-9.132 2.415,-12.009 3.961,-10.719 1.118,0.932 2.947,16.805 2.788,24.196 l -0.068,3.164 -1.054,0.519 c -1.208,0.594 -3.61,0.849 -5.08,0.538 z M 135.403,110.648 c 0,0.174 0.216,0.316 0.479,0.316 0.576,0 1.718,-1.076 1.506,-1.418 -0.308,-0.498 -1.985,0.433 -1.985,1.102 z m 85.481,12.755 c 0.67,1.084 8.487,-4.703 9.143,-6.769 0.091,-0.286 0.107,-0.578 0.037,-0.648 -0.541,-0.541 -9.583,6.765 -9.18,7.417 z m 20.663,1.489 c 0.162,0.423 0.098,0.456 2.467,-1.247 3.154,-2.268 6.238,-3.318 11.541,-3.928 5.34,-0.615 5.81,-0.829 4.21,-1.914 -0.988,-0.669 -3.088,-1.095 -4.416,-0.896 -4.992,0.748 -14.474,6.234 -13.802,7.985 z m 113.495,12.623 c 3.626,1.511 6.23,-0.164 8.416,-5.414 1.999,-4.802 1.339,-6.442 -3.413,-8.491 -6.686,-2.882 -19.3,-7.088 -19.3,-6.435 0,0.118 1.472,1.341 3.272,2.717 4.499,3.441 6.717,5.898 6.527,7.228 -0.176,1.232 -1.383,0.838 -4.818,-1.573 -4.593,-3.225 -5.515,-3.511 -4.651,-1.445 1.788,4.281 9.25,11.446 13.967,13.413 z m -163.706,-7.371 c 4.813,0.848 5.384,0.521 6.984,-4 0.57,-1.609 0.452,-1.651 -1.664,-0.587 l -1.858,0.934 -3.119,0 -3.119,0 -0.753,0.98 c -1.228,1.598 -0.819,1.908 3.529,2.673 z m 62.075,0.105 c -0.184,0.479 2.716,0.47 4.085,-0.013 2.688,-0.948 4.548,-4.054 2.096,-3.5 -1.627,0.367 -5.907,2.8 -6.181,3.513 z m 69.41,42.408 c 0.416,0.108 2.391,0.143 4.389,0.077 6.087,-0.2 6.435,-0.423 6.217,-3.968 -0.188,-3.052 -0.278,-2.958 3.076,-3.215 4.685,-0.36 5.074,-0.941 2.387,-3.563 -2.934,-2.864 -3.865,-3.024 -6.971,-1.203 -4.361,2.556 -6.816,2.734 -13.498,0.979 -22.937,-6.027 -30.203,-7.229 -36.413,-6.022 -4.373,0.851 -7.193,3.424 -5.551,5.066 0.828,0.828 1.959,0.745 5.078,-0.372 6.307,-2.259 11.336,-1.693 31.495,3.548 8.466,2.2 12.978,3.61 13.172,4.116 0.237,0.619 -0.888,1.446 -2.508,1.843 -3.457,0.846 -3.812,1.951 -0.873,2.714 z m -15.393,-3.71 c 1.27,0.455 1.922,0.419 2.51,-0.14 0.667,-0.633 -0.941,-1.784 -3.536,-2.53 -3.895,-1.121 -2.991,1.231 1.026,2.67 z m -122.141,82.545 c 2.314,2.758 0.249,-2.241 -4.212,-10.197 -9.943,-17.734 -23.648,-37.283 -25.111,-35.82 -0.759,0.759 1.111,3.879 12.733,21.241 4.832,7.218 10.418,15.599 12.414,18.623 1.995,3.025 3.875,5.793 4.176,6.153 z m -24.997,17.265 c 1.132,0.862 2.242,0.591 2.242,-0.548 0,-2.188 -9.976,-11.971 -16.875,-16.548 -4.49,-2.979 -6.797,-3.943 -11.133,-4.65 -1.547,-0.252 -4.922,-0.902 -7.5,-1.443 -7.431,-1.561 -14.268,-1.468 -17.93,0.245 l -1.289,0.603 5.977,0.156 c 17.571,0.458 29.944,5.7 41.951,17.771 2.126,2.138 4.177,4.123 4.557,4.414 z m 188.306,11.816 c 1.905,0.453 2.461,-0.744 1.391,-2.997 -0.407,-0.858 -1.335,-1.547 -3.633,-2.699 -4.727,-2.368 -5.694,-5.537 -1.89,-6.197 3.609,-0.626 3.326,-1.697 -2.159,-8.181 -1.14,-1.347 -2.592,-3.33 -3.226,-4.406 -1.915,-3.248 -3.484,-4.059 -4.974,-2.568 -1.628,1.627 -0.051,11.295 2.749,16.855 2.519,5.002 7.275,9.131 11.742,10.193 z M 48.8808,574.836 c 0.2043,0.532 19.822,0.481 20.3559,-0.054 0.3521,-0.352 0.6165,-10.348 0.2746,-10.38 -0.1111,-0.011 -2.8387,-0.1 -6.0613,-0.199 -6.18,-0.189 -6.6797,-0.263 -6.6797,-0.991 0,-0.648 1.1069,-1.041 3.8467,-1.368 4.0813,-0.486 4.0779,-0.481 3.6834,-5.189 -0.3433,-4.098 0.0153,-3.719 -3.5148,-3.719 -3.2832,0 -3.885,-0.19 -3.7446,-1.185 0.1235,-0.874 1.3005,-1.132 7.2222,-1.58 l 5.2805,-0.4 0,-4.921 0,-4.922 -10.1758,-0.175 c -5.5968,-0.097 -10.2135,-0.138 -10.2594,-0.093 -0.1586,0.159 -0.3827,34.772 -0.2277,35.176 z M 373.34,531.957 c 0.104,0.104 30.217,-0.071 37.213,-0.215 7.092,-0.147 6.821,0.097 7.183,-6.462 l 0.239,-4.336 1.454,-4.102 c 4.4,-12.409 5.255,-18.197 6.099,-41.25 0.705,-19.27 1.118,-23.03 3.78,-34.453 6.345,-27.219 5.96,-32.126 -4.351,-55.405 -1.94,-4.379 -1.942,-4.373 1.276,-3.055 5.607,2.296 6.377,1.892 7.613,-4.001 1.901,-9.061 0.571,-13.436 -8.474,-27.89 -5.28,-8.436 -7.694,-12.623 -7.694,-13.344 0,-0.428 0.764,-0.834 2.879,-1.529 2.283,-0.75 2.982,-1.404 2.975,-2.785 -0.028,-5.468 -8.912,-13.229 -22.041,-19.253 -5.915,-2.715 -7.043,-3.335 -8.469,-4.655 -1.765,-1.634 -2.062,-1.535 -2.062,0.683 0,3.117 -0.004,3.114 7.416,6.278 2.725,1.162 5.731,2.502 6.679,2.978 8.968,4.504 17.113,11.119 13.69,11.119 -5.382,0 -5.432,2.725 -0.242,13.242 1.336,2.707 3.819,7.295 5.517,10.195 6.829,11.66 8.072,14.766 8.072,20.157 0,8.063 -1.695,8.102 -6.981,0.163 -1.477,-2.217 -3.855,-5.665 -5.285,-7.663 -4.586,-6.405 -5.419,-8.266 -6.478,-14.468 -1.481,-8.669 -3.429,-12.421 -10.559,-20.337 -2.994,-3.323 -4.002,-4.847 -4.235,-6.399 -0.206,-1.374 -0.735,-1.662 -3.777,-2.058 -3.18,-0.414 -3.923,-0.564 -10.38,-2.1 -11.737,-2.791 -19.453,-3.801 -19.453,-2.545 0,0.547 1.182,0.924 6.111,1.948 11.639,2.42 21.108,6.93 27.347,13.025 2.881,2.815 3.089,3.402 1.205,3.402 -2.643,0 -5.511,-1.147 -11.225,-4.492 -3.343,-1.956 -4.219,-2.407 -4.219,-2.171 0,0.7 2.034,3.727 5.525,8.221 4.242,5.463 4.865,6.547 5.741,10.005 0.819,3.231 1.754,4.827 5.38,9.18 11.223,13.471 23.631,32.678 26.339,40.771 4.287,12.817 4.146,34.564 -0.236,36.23 -2.048,0.779 -2.196,0.066 -2.786,-13.486 -0.549,-12.59 -0.859,-15.296 -1.885,-16.477 -1.899,-2.186 -2.09,3.947 -0.681,21.868 3.169,40.304 2.435,64.273 -2.508,81.875 -1.28,4.558 -2.7,6.708 -3.102,4.697 -0.42,-2.099 -0.068,-9.087 1.262,-25.049 1.772,-21.282 1.908,-42.067 0.335,-51.269 -0.315,-1.837 -0.828,-4.843 -1.142,-6.68 -0.643,-3.765 -1.084,-8.732 -1.772,-19.98 -1.45,-23.681 -2.318,-26.555 -11.064,-36.643 -7.946,-9.165 -9.138,-10.8 -9.803,-13.441 -0.494,-1.963 -0.686,-2.02 -4.226,-1.242 -3.588,0.789 -3.637,0.771 -4.319,-1.633 -0.829,-2.92 -2.18,-4.847 -4.204,-5.995 -0.947,-0.538 -1.334,-0.953 -1.893,-2.033 -1.021,-1.97 -2.242,-2.364 -3.482,-1.123 -0.512,0.512 -0.329,0.755 0.796,1.058 1.011,0.272 1.136,0.551 0.54,1.209 -0.545,0.602 -1.136,0.533 -1.714,-0.201 -0.59,-0.75 -0.507,-1.353 0.492,-3.568 0.812,-1.801 0.719,-1.984 -1.54,-3.06 -5.791,-2.755 -13.054,-3.667 -20.874,-2.62 -6.902,0.924 -7.428,0.688 -5.39,-2.414 1.738,-2.647 1.302,-3.159 -1.305,-1.535 -3.456,2.152 -5.867,3.1 -6.438,2.529 -0.077,-0.077 -0.498,-1.573 -0.935,-3.324 -1.454,-5.822 -4.058,-10.906 -4.895,-9.554 -0.282,0.458 -0.639,3.95 -1.31,12.808 -1.72,22.732 -2.691,28.113 -5.296,29.355 -1.522,0.726 -1.948,-0.384 -2.319,-6.034 -0.192,-2.93 -0.557,-5.454 -0.828,-5.725 -0.556,-0.556 -1.457,3.742 -2.233,10.647 -0.818,7.274 -0.998,7.795 -2.661,7.687 -1.624,-0.106 -1.638,-0.171 -1.878,-8.695 -0.216,-7.661 -0.299,-8.225 -1.265,-8.584 -1.61,-0.599 -1.868,0.9 -2.277,13.224 -0.303,9.135 -0.706,13.47 -1.877,20.205 -0.511,2.938 -1.239,7.135 -1.619,9.327 -1.749,10.101 -1.695,24.873 0.12,32.531 1.21,5.111 1.11,5.248 -4.241,5.8 -6.183,0.637 -7.968,-0.176 -11.354,-5.172 -2.399,-3.539 -2.711,-3.771 -4.145,-3.074 -1.376,0.669 -6.061,3.635 -12.307,7.792 -7.558,5.03 -8.698,5.433 -11.626,4.119 -4.327,-1.943 -5.329,-0.346 -2.99,4.766 2.056,4.493 2.393,6.424 1.528,8.737 -1.319,3.526 -2.483,2.924 -5.755,-2.976 -2.831,-5.105 -3.337,-4.537 -3.83,4.305 -0.196,3.518 -0.288,4.139 -0.652,4.405 -1.168,0.854 -3.037,0.572 -6.761,-1.019 -4.559,-1.947 -5.185,-2.078 -12.258,-2.55 -5.625,-0.377 -6.367,-0.591 -7.129,-2.06 -1.037,-2 1.16,-2.794 9.903,-3.578 8.542,-0.767 9.241,-1.079 10.303,-4.597 1.303,-4.319 3.592,-6.585 9.133,-9.042 2.791,-1.238 3.161,-1.777 4.254,-6.197 1.392,-5.626 1.899,-5.892 6.903,-3.623 2.909,1.32 2.923,1.314 2.923,-1.268 l 0,-2.065 0.953,-0.754 c 1.295,-1.027 3.43,-1.858 8.107,-3.156 10.144,-2.817 10.856,-4.004 4.551,-7.583 -3.683,-2.089 -3.876,-2.534 -2.573,-5.911 1.632,-4.233 4.006,-6.757 8.18,-8.697 4.799,-2.23 4.507,-1.884 5.007,-5.933 0.636,-5.152 1.409,-6.303 6.72,-9.999 4.883,-3.399 4.957,-3.574 3.158,-7.512 -1.936,-4.235 -2.069,-6.271 -0.665,-10.143 1.533,-4.229 0.877,-4.106 -4.68,0.877 -1.942,1.741 -3.093,2.231 -5.938,2.523 -4.547,0.468 -5.829,1.402 -6.986,5.087 -1.059,3.372 -1.447,3.606 -4.584,2.763 -3.294,-0.884 -4.594,-0.332 -7.78,3.303 -4.26,4.861 -4.438,5.551 -2.622,10.136 1.301,3.284 1.513,4.386 0.878,4.567 -0.645,0.184 -2.752,0.368 -7.347,0.641 -10.058,0.597 -10.73,1.668 -10.8,17.213 -0.024,5.279 -0.318,8.987 -0.747,9.416 -0.927,0.927 -2.523,-0.631 -4.698,-4.585 -2.234,-4.06 -2.981,-4.46 -4.926,-2.635 -4.189,3.932 -7.075,0.936 -5.193,-5.393 1.281,-4.309 1.064,-4.76 -2.031,-4.229 -3.939,0.675 -4.381,1.904 -2.908,8.087 2.744,11.519 -0.51,14.295 -6.747,5.754 -1.695,-2.321 -1.938,-2.548 -2.725,-2.548 -0.951,0 -4.442,1.806 -4.735,2.449 -0.254,0.558 -0.276,0.447 1.194,5.989 1.183,4.459 0.951,6.418 -1.115,9.435 -1.531,2.235 -1.772,2.951 -1.729,5.129 0.063,3.224 -0.367,3.274 -3.892,0.452 -3.742,-2.995 -3.678,-2.696 -1.574,-7.292 2.255,-4.93 2.195,-5.422 -0.959,-7.761 -1.146,-0.85 -3.309,-2.716 -4.807,-4.147 l -2.724,-2.602 -1.013,1.459 c -6.253,9.008 -9.622,10.819 -15.107,8.119 -3.132,-1.542 -3.519,-2.519 -3.748,-9.472 -0.289,-8.73 -0.316,-8.763 -3.773,-4.673 -1.146,1.355 -2.322,2.525 -2.614,2.599 -0.588,0.149 -0.765,0.041 -2.867,-1.747 -1.807,-1.537 -1.591,-1.611 -4.197,1.432 -2.737,3.196 -2.914,3.218 -4.369,0.537 -5.557,-10.239 -1.031,-16.499 8.942,-12.369 l 1.666,0.69 0.152,-2.492 c 0.314,-5.144 0.802,-5.753 5.384,-6.718 2.818,-0.593 3.185,-1.187 2.162,-3.501 -3.079,-6.961 -5.227,-6.562 -15.983,2.971 l -2.845,2.521 -2.462,-1.161 c -4.5,-2.123 -5.428,-2.011 -8.834,1.066 -2.093,1.89 -2.941,2.294 -5.867,2.795 -3.189,0.547 -5.236,1.1 -9.505,2.566 -5.834,2.005 -6.654,2.036 -12.633,0.491 -2.175,-0.563 -4.061,-0.872 -6.462,-1.059 -5.951,-0.465 -5.748,-0.208 -4.072,-5.147 2.246,-6.621 1.818,-7.037 -3.411,-3.311 -3.809,2.714 -3.932,2.642 -3.971,-2.34 -0.036,-4.463 -0.045,-4.467 -5.207,-2.068 -2.189,1.017 -3.509,1.49 -4.368,1.564 l -1.23,0.107 0,-0.739 c 0,-3.24 3.26,-5.433 9.961,-6.703 5.582,-1.059 6.374,-1.773 4.284,-3.863 -2.989,-2.989 -5.172,-3.687 -9.515,-3.044 -2.588,0.383 -2.895,0.265 -3.139,-1.202 -0.29,-1.737 -0.406,-2.055 -0.935,-2.547 -0.318,-0.296 -0.8301,-0.475 -1.3585,-0.475 -2.0892,0 -2.0524,-0.678 0.251,-4.619 1.8485,-3.163 1.8695,-3.492 0.2761,-4.354 -4.0526,-2.194 -0.5191,-4.57 5.8594,-3.941 6.486,0.639 10.203,2.998 12.778,8.11 1.783,3.54 2.496,4.036 7.6,5.287 4.064,0.996 5.719,1.679 8.333,3.443 1.257,0.848 2.8,1.887 3.43,2.309 4.144,2.778 12.111,4.322 15.344,2.972 1.103,-0.46 2.803,-2.116 4.028,-3.922 1.152,-1.698 1.145,-1.696 3.424,-1.167 2.64,0.612 2.85,0.53 8.778,-3.41 4.591,-3.052 7.443,-4.543 10.757,-5.625 7.534,-2.458 7.536,-2.602 0.041,-3.166 l -4.37,-0.328 -2.581,-1.302 c -1.649,-0.831 -3.514,-1.546 -5.16,-1.979 -1.418,-0.373 -3.844,-1.066 -5.391,-1.54 -1.547,-0.474 -3.497,-1.021 -4.334,-1.216 -2.522,-0.588 -2.531,-0.621 -0.827,-2.955 2.905,-3.978 2.393,-4.639 -6.214,-8.034 -5.795,-2.285 -6.488,-2.741 -7.246,-4.767 -1.056,-2.823 -2.244,-3.242 -12.399,-4.37 -8.683,-0.964 -9.099,-1.111 -9.993,-3.514 -3.454,-9.28 -5.987,-10.393 -14.233,-6.251 l -3.582,1.8 -2.461,-0.009 c -2.663,-0.01 -5.1856,-0.707 -10.3455,-2.859 -4.484,-1.87 -4.668,-2.559 -2.0727,-7.767 2.3076,-4.631 3.3241,-5.642 8.7509,-8.701 4.4983,-2.536 6.1223,-3.869 6.3733,-5.233 0.324,-1.758 -0.103,-1.771 -9.0003,-0.284 -13.3749,2.237 -15.028,2.152 -15.9933,-0.821 -0.5039,-1.552 -1.359,-2.333 -3.3457,-3.055 -3.6328,-1.32 -3.7384,-1.554 -4.4874,-9.943 -0.4377,-4.902 -0.6935,-6.082 -1.965,-9.059 -0.7197,-1.686 -1.0693,-2.996 -1.5155,-5.68 -0.3311,-1.992 -0.723,-3.632 -0.9136,-3.822 -1.5845,-1.585 -6.2698,5.053 -9.9354,14.075 -1.3067,3.216 -1.7784,3.799 -2.4313,3.004 -1.0414,-1.267 -0.8114,-3.731 1.1859,-12.698 1.666,-7.48 2.0533,-10.119 2.3318,-15.89 0.3592,-7.443 0.4192,-7.646 2.6024,-8.811 3.1816,-1.698 3.305,-2.051 1.9482,-5.564 -1.4622,-3.786 -1.1414,-5.252 2.9514,-13.487 10.7307,-21.591 18.2044,-29.86 35.8618,-39.676 3.47,-1.929 7.078,-4.115 10.781,-6.533 8.611,-5.622 10.042,-6.331 19.454,-9.647 7.923,-2.791 9.843,-3.638 9.843,-4.343 0,-0.688 -2.058,-0.255 -11.688,2.459 -9.751,2.748 -10.267,2.949 -14.629,5.704 -21.2923,13.45 -24.0381,15.268 -29.2295,19.355 -7.3739,5.805 -14.1141,14.417 -21.8889,27.969 -3.1476,5.486 -6.3735,10.854 -9.1136,15.165 l -1.404,2.209 0.2701,3.692 c 0.7862,10.742 0.5706,16.444 -1.0134,26.812 -1.1633,7.614 -1.4943,11.569 -1.7692,21.14 -0.6233,21.703 -0.786,24.1 -2.3677,34.876 -2.3239,15.833 -2.4398,17.466 -2.2372,31.523 0.2444,16.954 0.6043,19.793 4.4863,35.391 4.3187,17.352 5.5729,28.707 5.2034,47.109 -0.2024,10.082 -0.7085,11.322 -7.794,19.102 -1.6437,1.804 -4.0803,4.521 -5.4146,6.036 l -2.4259,2.755 0,27.502 0,27.501 3.1054,0.153 c 5.1158,0.253 70.6458,0.597 162.3628,0.853 84.338,0.236 167.358,0.644 167.537,0.822 z M 341.155,312.653 c 1.163,0.426 1.276,-0.04 1.406,-5.787 0.065,-2.849 0.203,-5.312 0.307,-5.473 0.493,-0.762 1.737,0.182 4.024,3.053 1.155,1.449 1.147,1.472 0.843,-2.398 -0.43,-5.465 -1.366,-7.411 -4.686,-9.737 -2.073,-1.453 -2.437,-2.08 -2.724,-4.683 -0.23,-2.08 -0.706,-3.051 -1.949,-3.97 -2.769,-2.048 -3.75,-3.441 -8.761,-12.44 -4.857,-8.724 -5.987,-10.579 -14.635,-24.024 -1.285,-1.998 -3.638,-5.795 -5.23,-8.437 -3.106,-5.16 -5.166,-8.088 -7.463,-10.611 -1.74,-1.911 -1.801,-1.135 0.434,-5.554 2.467,-4.879 3.518,-6.101 5.242,-6.101 4.607,0 10.509,3.557 21.046,12.683 6.108,5.29 7.37,5.932 14.958,7.607 9.18,2.027 13.734,5.348 24.402,17.796 9.057,10.568 11.681,14.479 13.488,20.105 1.003,3.125 3.061,8.018 4.992,11.868 l 1.394,2.782 -1.516,2.525 c -2.406,4.005 -2.403,4.206 0.088,7.048 0.977,1.115 2.175,2.777 2.662,3.694 l 0.884,1.665 0.007,-4.876 c 0.005,-4.044 0.091,-5.286 0.502,-7.266 0.912,-4.384 0.301,-6.912 -2.84,-11.764 -0.882,-1.362 -1.938,-3.29 -2.347,-4.285 -2.764,-6.725 -3.653,-8.507 -6.104,-12.24 -3.426,-5.218 -7.454,-10.006 -14.166,-16.841 -9.29,-9.46 -11.891,-10.979 -22.946,-13.395 -5.671,-1.24 -6.078,-1.499 -10.285,-6.551 -3.32,-3.986 -5.009,-5.283 -12.044,-9.245 -9.416,-5.303 -10.911,-6.403 -10.302,-7.58 0.493,-0.954 4.212,-4.43 8.408,-7.859 5.595,-4.573 6.894,-5.362 12.757,-7.75 9.844,-4.009 15.055,-8.965 25.956,-24.688 3.455,-4.983 9.827,-12.009 17.604,-19.41 6.665,-6.343 9.017,-9.32 15.832,-20.039 11.823,-18.597 16.169,-21.683 34.317,-24.366 8.458,-1.251 8.654,-1.371 8.098,-4.953 -0.441,-2.8392 -1.378,-3.9606 -5.807,-6.944 -8.854,-5.9638 -13.523,-7.835 -20.423,-8.1842 -7.146,-0.3617 -6.784,0.6707 0.671,1.9118 11.403,1.8986 20.413,6.9337 23.704,13.2474 1.157,2.22 0.097,1.933 -8.704,-2.3548 -14.388,-7.0103 -13.815,-7.0699 -34.453,3.5788 -5.383,2.777 -7.626,3.641 -11.372,4.381 -3.59,0.708 -5.035,1.142 -5.035,1.51 0,1.122 2.771,3.239 5.22,3.988 2.026,0.62 4.291,1.842 4.722,2.547 0.204,0.336 0.037,0.822 -0.86,2.494 -1.52,2.837 -1.355,4.004 0.566,4.004 2.288,0 8.263,-7.227 8.756,-10.592 0.227,-1.547 0.633,-1.8 4.148,-2.585 1.712,-0.382 4.694,-1.278 6.628,-1.99 11.331,-4.175 15.777,-4.865 16.009,-2.487 0.1,1.025 -0.57,1.483 -6.18,4.216 -7.984,3.892 -10.395,5.449 -14.076,9.096 -3.504,3.471 -5.118,5.746 -12.397,17.467 -3.467,5.583 -5.358,8.139 -8.37,11.314 l -2.173,2.29 -7.266,-0.711 c -3.996,-0.392 -8.557,-0.832 -10.135,-0.979 l -2.869,-0.267 -2.377,-2.718 c -3.392,-3.88 -7.235,-9.091 -12.436,-16.866 l -4.527,-6.767 -1.992,-0.151 c -10.361,-0.785 -12.729,-0.682 -18.044,0.79 -4.885,1.352 -5.381,1.245 -8.152,-1.763 -0.93,-1.008 -1.729,-1.788 -1.776,-1.733 -0.048,0.055 -0.462,0.977 -0.921,2.049 -2.528,5.904 -5.869,9.018 -15.751,14.68 -5.837,3.345 -7.614,5.319 -7.619,8.467 -0.004,2.358 0.362,2.56 4.645,2.56 5.35,0 5.424,-0.058 11.341,-8.909 5.534,-8.279 6.205,-8.707 9.493,-6.05 1.738,1.405 2.763,1.712 6.866,2.055 4.521,0.378 4.456,0.343 6.459,3.44 2.385,3.686 3.107,3.76 6.851,0.7 6.074,-4.964 8.996,-6.367 11.051,-5.303 1.055,0.545 3.546,4.578 7.387,11.958 4.434,8.519 5.028,9.222 9.067,10.743 5.824,2.192 8.264,4.613 6.565,6.515 -0.978,1.095 -2.083,1.046 -5.359,-0.238 -3.721,-1.458 -3.884,-1.289 -2.618,2.697 1.805,5.681 1.092,8.981 -3.382,15.67 -3.153,4.712 -5.529,6.526 -17.509,13.369 -4.319,2.466 -9.328,5.383 -11.133,6.482 -5.349,3.257 -5.755,3.409 -10.899,4.062 -6.255,0.794 -7.096,1.461 -4.708,3.732 0.887,0.843 0.933,1.625 0.127,2.153 -0.783,0.513 -2.924,0.112 -8.485,-1.586 -9.87,-3.015 -11.577,-3.407 -11.839,-2.72 -0.22,0.58 0.285,1.306 1.853,2.662 3.953,3.419 4.215,4.31 1.268,4.31 -4.254,0 -7.326,-1.76 -13.426,-7.692 l -3.452,-3.358 -1.47,1.074 c -5.998,4.383 -9.499,5.429 -12.877,3.845 -2.681,-1.257 -4.075,-3.023 -4.885,-6.188 -0.535,-2.093 -0.662,-2.339 -1.735,-3.371 -1.018,-0.98 -1.024,-1.099 -0.136,-2.672 0.907,-1.607 0.953,-2.972 0.128,-3.797 -0.666,-0.665 -0.856,-0.676 -3.995,-0.221 -7.972,1.155 -14.512,-1.114 -19.86,-6.89 -4.163,-4.496 -4.203,-5.763 -0.362,-11.394 3.879,-5.687 3.936,-6.88 0.493,-10.227 -4.194,-4.078 -5.764,-4.743 -11.326,-4.798 -4.419,-0.043 -4.313,-0.023 -7.969,-1.5 -3.005,-1.214 -4.491,-1.632 -5.816,-1.636 -2.994,-0.008 -2.405,1.207 2.066,4.265 5.209,3.562 7.339,4.418 12.698,5.102 5.668,0.724 6.135,1.427 3.843,5.789 -3.799,7.232 -3.799,7.237 0.707,13.669 3.663,5.229 5.248,6.684 8.928,8.196 10.267,4.218 14.615,7.468 19.964,14.925 5.019,6.996 5.979,7.575 13.13,7.92 3.556,0.172 3.894,0.291 5.944,2.095 2.251,1.982 2.378,1.946 3.746,-1.039 0.841,-1.836 1.747,-2.8 2.632,-2.8 1.739,0 11.697,4.322 16.137,7.005 4.739,2.862 5.951,6.466 2.521,7.494 -1.675,0.502 -3.311,3.09 -4.494,7.114 -0.613,2.081 -0.496,2.398 0.971,2.646 4.01,0.678 3.004,5.304 -1.689,7.77 -2.928,1.539 -3.094,2.156 -1.132,4.2 2.001,2.084 1.915,2.332 -1.051,3.02 -4.634,1.074 -4.232,2.416 0.876,2.92 2.703,0.266 2.754,0.29 2.754,1.293 0,1.268 -0.358,1.391 -4.36,1.498 -1.985,0.053 -3.609,0.14 -3.609,0.193 0,0.052 0.556,0.752 1.235,1.553 1.78,2.102 2.324,3.067 2.237,3.972 l -0.074,0.767 -1.563,0.118 c -0.859,0.064 -1.627,0.181 -1.705,0.259 -0.676,0.679 2.406,2.285 8.659,4.514 2.32,0.827 6.275,2.323 8.789,3.324 9.272,3.694 9.568,2.769 2.953,-9.223 -4.492,-8.143 -5.035,-10.083 -4.393,-15.711 0.957,-8.405 5.88,-1.389 7.648,10.9 0.669,4.647 1.688,7.176 4.738,11.761 3.331,5.005 5.459,6.436 10.657,7.165 4.724,0.663 6.026,2.158 9,10.331 3.687,10.132 4.765,12.271 7.759,15.391 2.303,2.398 2.243,2.073 0.78,4.22 -1.611,2.364 -1.613,3.143 -0.011,5.059 1.096,1.312 3.22,3.123 3.994,3.406 z M 67.598,634.235 c 0.7204,0.535 5.5692,0.212 8.2389,-0.549 2.3921,-0.681 2.7801,-1.667 3.7898,-9.626 0.9443,-7.444 1.0164,-7.547 6.0045,-8.606 6.443,-1.367 7.026,-1.787 7.9074,-5.699 0.9571,-4.247 0.736,-4.454 -6.8378,-6.397 -6.1687,-1.583 -7.4353,-2.224 -6.4141,-3.245 0.4978,-0.498 0.2945,-0.477 9.4325,-0.963 12.5688,-0.668 13.5668,-1.461 13.9648,-11.087 l 0.149,-3.619 -0.768,-0.153 c -2.216,-0.443 -29.7954,0.084 -32.2624,0.617 -2.7478,0.593 -2.929,0.907 -3.4849,6.026 -1.5129,13.932 -1.3305,42.105 0.2803,43.301 z m 28.5766,-59.327 c 1.3924,0.345 2.7034,0.439 6.3064,0.453 l 4.549,0.017 -0.157,-6.504 c -0.087,-3.578 -0.225,-7.48 -0.307,-8.672 l -0.148,-2.168 -2.2,0 c -3.58,0 -4.036,0.336 -4.6753,3.448 -0.608,2.957 -1.1025,3.584 -2.8254,3.582 -3.6747,-0.006 -5.4503,-2.538 -5.4866,-7.824 -0.0343,-4.999 3.5287,-6.66 14.3773,-6.703 l 0.879,-0.003 0,-5.249 0,-5.249 -3.457,-0.178 c -10.5207,-0.539 -14.8565,2.454 -16.9925,11.731 -0.7837,3.403 -0.6843,11.329 0.1708,13.604 2.0877,5.555 5.1244,8.515 9.9663,9.715 z M 252.9,32.5011 c 2.837,0.7687 5.609,0.3021 8.429,-1.4186 2.687,-1.6396 2.479,-1.9684 -1.636,-2.5816 -4.577,-0.6823 -6.489,-1.4201 -19.905,-7.6807 -7.876,-3.675 -11.501,-5.2815 -13.37,-5.9246 l -1.267,-0.4361 -0.475,0.603 c -1.059,1.346 -0.317,2.4204 3.393,4.9161 5.927,3.9869 20.554,11.3633 24.831,12.5225 z m -39.726,-4.2577 c 2.752,0.8605 4.538,-0.2797 6.262,-3.9985 1.313,-2.8304 1.68,-4.0411 1.39,-4.5829 -0.488,-0.911 -1.906,-0.2376 -2.353,1.1171 -0.646,1.9558 -2.695,3.42 -5.954,4.2549 -1.004,0.2573 -1.928,0.5699 -2.053,0.6947 -0.638,0.6379 0.711,1.8902 2.708,2.5147 z m 105.389,20.8944 c 5.417,1.4749 7.069,0.897 5.61,-1.9626 -1.097,-2.1514 -2.149,-2.499 -6.91,-2.2834 -5.774,0.2616 -7.082,-0.2083 -12.328,-4.4284 -5.808,-4.672 -6.429,-4.7313 -6.348,-0.606 0.071,3.6183 -0.6,4.0663 -6.768,4.5193 -7.973,0.5855 -9.133,0.2389 -16.055,-4.7995 -4.451,-3.2402 -6.053,-4.1581 -6.49,-3.7204 -0.923,0.9228 6.133,9.1743 9.055,10.5886 1.642,0.7949 3.854,0.9384 18.122,1.1757 15.879,0.2641 18.062,0.4139 22.112,1.5167 z m -75.784,12.7536 c 0.793,0.8551 1.573,0.2697 3.767,-2.8252 3.543,-4.9985 5.768,-6.0176 14.921,-6.836 7.086,-0.6334 10.475,-1.4829 8.614,-2.1589 -0.29,-0.1054 -5.537,-0.1586 -11.66,-0.1183 -14.797,0.0975 -16.663,-0.1153 -19.691,-2.2453 -2.333,-1.6405 -2.539,-2.3734 -1.652,-5.8707 0.942,-3.7125 0.853,-5.1332 -0.284,-4.5248 -1.071,0.5734 -2.445,3.4615 -3.44,7.2317 -0.457,1.7319 -1.041,2.1786 -3.222,2.4666 -2.739,0.3616 -3.038,0.1354 -3.152,-2.3861 -0.138,-3.0331 -0.235,-3.0623 -4.419,-1.3385 -1.497,0.6168 -2.71,0.9132 -4.882,1.1927 -4.467,0.5747 -5.388,1.1848 -3.603,2.3871 1.067,0.7191 3.959,1.3464 10.126,2.1963 11.745,1.6187 12.576,2.0902 16.507,9.3724 0.87,1.6113 1.801,3.1669 2.07,3.457 z m -15.333,7.3723 c 3.479,0.5995 5.547,-0.3674 5.938,-2.7766 0.325,-2.0013 -1.628,-3.2652 -6.898,-4.4653 -1.916,-0.4364 -4.795,-1.2945 -6.399,-1.9071 -1.604,-0.6126 -3.338,-1.1226 -3.854,-1.1334 l -0.937,-0.0196 -0.125,1.0867 c -0.205,1.7805 -1.222,2.518 -4.147,3.0066 -2.691,0.4497 -3.538,-0.0292 -5.653,-3.196 -1.165,-1.7435 -4.275,-4.9989 -4.776,-4.9989 -1.642,0 -0.608,3.3967 2.073,6.8093 1.808,2.3018 2.46,2.5725 6.83,2.8366 4.533,0.274 5.701,0.5348 10.206,2.2792 4.543,1.7587 5.682,2.1236 7.742,2.4785 z M 207.657,81.778 c 3.118,0.6753 4.855,-0.6818 4.855,-3.7924 0,-1.8227 -0.464,-2.2781 -3.708,-3.6348 -4.401,-1.8404 -4.497,-1.8069 -4.047,1.4122 0.464,3.316 1.633,5.7406 2.9,6.015 z M 195.92,77.834 c 1.732,0.5956 2.708,0.6148 3.386,0.0664 l 0.526,-0.4266 -0.624,-0.4911 c -1.192,-0.9372 -7.135,-2.7577 -7.573,-2.3196 -0.449,0.449 2.313,2.4927 4.285,3.1709 z m 64.841,15.4872 c 0.273,0.442 4.611,-0.7914 11.225,-3.1912 6.436,-2.3354 8.871,-3.6793 7.846,-4.3293 -2.008,-1.2721 -20.097,5.8612 -19.071,7.5205 z m -11.217,0.4325 c 0,0.9339 3.673,-0.8203 8.567,-4.0918 5.942,-3.9716 5.515,-4.4488 -1.011,-1.1303 -4.612,2.3451 -7.556,4.3801 -7.556,5.2221 z m -17.06,4.1646 c 1.781,0.5927 3.817,0.92 3.817,0.6133 0,-0.7677 -0.791,-1.2632 -3.979,-2.4925 -3.335,-1.2859 -4.706,-2.2163 -9.138,-6.2017 -4.594,-4.131 -4.94,-4.2847 -3.859,-1.718 1.651,3.9238 6.616,7.6208 13.159,9.7989 z M 122.623,91.7156 c 1.368,0.6983 1.647,0.7685 1.647,0.4135 0,-0.3205 -1.614,-1.3462 -2.433,-1.5456 -1.112,-0.2712 -0.646,0.4008 0.786,1.1321 z m 183.962,466.1904 0,17.325 10.312,0 10.313,0 0,-5.256 0,-5.256 -6.088,-0.076 c -5.787,-0.072 -6.111,-0.1 -6.572,-0.56 -1.122,-1.124 0.063,-1.722 3.729,-1.883 1.496,-0.065 3.062,-0.171 3.481,-0.234 l 0.762,-0.116 0,-4.071 0,-4.07 -1.816,-0.15 c -7.271,-0.598 -8.228,-1.665 -2.403,-2.679 2.49,-0.434 5.994,-0.883 7.969,-1.021 l 0.82,-0.058 -0.027,-3.918 c -0.031,-4.51 -0.158,-4.895 -1.788,-5.389 -1.1,-0.333 -14.194,-0.397 -17.11,-0.083 l -1.582,0.17 0,17.325 z m -299.09203,7.651 0,9.557 3.71403,0 3.7141,0 0.1504,-3.692 c 0.0828,-2.03 0.2212,-7.62 0.3076,-12.421 l 0.1571,-8.731 3.244,0 3.244,0 0,-5.156 0,-5.156 -11.0156,0 -11.01563275,0 0.00470996,3.105 c 0.00941455,6.204 0.18495979,6.592 3.09750279,6.846 4.29513,0.375 4.39779,0.74 4.39779,15.648 z m 197.22603,-1.655 0,11.212 10.694,0 10.695,0 -0.17,-3.457 c -0.093,-1.902 -0.238,-4.09 -0.323,-4.863 l -0.153,-1.407 -1.524,-0.15 c -0.838,-0.083 -2.947,-0.276 -4.687,-0.428 -9.154,-0.803 -9.354,-2.76 -0.288,-2.812 l 1.47,-0.008 -0.064,-4.16 -0.064,-4.16 -2.812,-0.142 c -3.907,-0.197 -5.508,-0.672 -5.508,-1.637 0,-0.83 2.261,-1.224 8.672,-1.51 1.611,-0.072 3.38,-0.186 3.93,-0.253 l 1.001,-0.121 -0.063,-4.966 -0.063,-4.965 -10.217,-0.061 -10.216,-0.061 -0.155,6.368 c -0.085,3.503 -0.155,11.414 -0.155,17.581 z m 84.857,2.716 0.151,8.496 3.68,0 3.681,0 0.146,-3.106 c 0.081,-1.708 0.205,-6.691 0.275,-11.074 0.07,-4.383 0.184,-8.522 0.253,-9.199 l 0.126,-1.23 1.917,-0.003 c 1.054,-10e-4 2.47,-0.068 3.147,-0.149 l 1.23,-0.148 0,-4.97 0,-4.97 -3.553,-0.154 c -1.954,-0.084 -6.926,-0.153 -11.049,-0.153 l -7.497,0 0.122,4.056 c 0.169,5.648 0.333,5.891 4.184,6.21 l 1.972,0.163 0.287,0.878 c 0.471,1.44 0.768,6.348 0.928,15.353 z m 74.672,8.239 c 0.415,0.099 2.85,0.19 5.41,0.204 l 4.656,0.024 -0.138,-1.231 c -0.077,-0.677 -0.209,-2.848 -0.295,-4.825 -0.1,-2.29 -0.251,-3.625 -0.416,-3.678 -0.143,-0.047 -1.974,-0.255 -4.07,-0.462 -7.32,-0.726 -7.832,-1.049 -8.27,-5.234 -0.733,-6.986 1.289,-9.014 9.581,-9.606 1.72,-0.123 3.207,-0.315 3.307,-0.426 0.099,-0.111 0.064,-2.312 -0.079,-4.89 l -0.26,-4.687 -2.109,0.064 c -8.921,0.273 -12.367,1.758 -14.534,6.264 -5.256,10.927 -1.322,26.454 7.217,28.483 z m 36.087,-17.415 0,17.613 10.312,0 10.313,0 0,-5.138 0,-5.139 -5.929,-0.076 c -6.218,-0.08 -7.196,-0.25 -7.196,-1.248 0,-0.945 0.757,-1.101 7.324,-1.513 0.097,-0.006 0.176,-1.909 0.176,-4.229 l 0,-4.219 -3.164,0 c -2.852,0 -3.211,-0.047 -3.633,-0.469 -1.695,-1.695 0.812,-2.542 7.617,-2.572 1.289,-0.005 2.897,-0.077 3.574,-0.158 l 1.231,-0.148 0,-4.851 0,-4.851 -8.379,-0.158 c -4.609,-0.086 -9.249,-0.224 -10.313,-0.307 l -1.933,-0.149 0,17.612 z m -205.108,5.25 0.264,-12.422 3.281,0 3.281,-0.029 0.264,-5.127 0.264,-5.156 -22.09,0 0,5.156 0,5.156 3.516,-0.029 3.515,-0.059 0,12.481 0,12.451 7.442,0 z m 32.867,12.413 c 0.4,0.253 4.758,0.251 9.413,-0.004 5.556,-0.304 7.179,-1.843 7.927,-7.516 0.555,-4.214 -0.192,-7.404 -2.6,-11.102 -3.538,-5.433 -3.578,-5.332 2.344,-5.772 1.741,-0.129 4.129,-0.235 5.308,-0.235 l 2.144,-10e-4 0.135,3.34 c 0.074,1.837 0.195,7.031 0.268,11.543 0.074,4.512 0.197,8.61 0.275,9.107 l 0.141,0.903 3.464,-0.084 c 1.905,-0.047 3.524,-0.146 3.599,-0.22 0.074,-0.075 0.227,-5.55 0.34,-12.168 0.238,-13.982 -0.157,-12.531 3.457,-12.715 2.376,-0.121 2.525,-0.16 3.19,-0.825 l 0.698,-0.697 -0.209,-4.011 c -0.131,-2.517 -0.313,-4.114 -0.487,-4.288 -0.439,-0.438 -28.549,-0.429 -30.291,0.01 -4.211,1.061 -6.087,4.196 -6.092,10.183 -0.004,3.487 0.809,5.782 3.545,10.016 2.334,3.613 2.275,3.755 -1.82,4.33 -3.148,0.442 -3.487,0.529 -3.917,1.007 -0.683,0.761 -1.413,8.831 -0.832,9.199 z m 166.381,-0.167 3.516,-0.293 0.234,-16.992 0.264,-17.022 -3.721,-0.351 -3.75,-0.352 -0.263,6.563 -0.264,6.592 -6.563,0 -0.468,-6.475 -0.469,-6.445 -3.516,-0.381 -3.515,-0.352 0,17.842 0,17.842 7.5,0 0,-6.563 0,-6.562 7.5,0 0,6.621 0,6.621 z m -370.0951,-10.049 -0.0119,10.254 3.75,0 3.75,0 0,-6.562 0,-6.563 3.75,0 3.75,0 0,6.563 0,6.562 3.75,0 3.75,0 0,-17.344 0,-17.343 -3.7132,0 -3.7132,0 -0.1592,4.596 c -0.0875,2.528 -0.225,5.375 -0.3056,6.328 l -0.1464,1.732 -3.2468,0 -3.2469,0 0,-1.594 c 0,-5.009 -0.7078,-10.289 -1.4628,-10.912 -0.6586,-0.544 -4.3107,-0.473 -4.998,0.097 -1.207,1.001 -1.4741,5.319 -1.496,24.186 z m 399.3921,-7.098 0,17.352 3.281,0 3.282,0 0.006,-1.933 c 0.008,-2.669 0.395,-6.409 0.727,-7.029 0.341,-0.637 1.424,0.487 3.782,3.923 3.174,4.628 3.552,4.845 8.668,4.99 l 3.692,0.105 -0.011,-3.836 c -0.016,-6.127 -0.102,-6.335 -2.688,-6.547 -2.957,-0.242 -3.25,-0.86 -1.642,-3.467 3.551,-5.76 3.13,-15.001 -0.915,-20.075 l -0.559,-0.701 -8.811,-0.067 -8.812,-0.067 0,17.352 z m 47.473,16.993 c 0.561,0.434 0.866,0.364 1.736,-0.399 1.861,-1.635 1.59,-5.923 -0.432,-6.844 -2.482,-1.131 -3.661,5.42 -1.304,7.243 z m -13.892,-0.452 c 2.304,2.466 4.339,-2.751 2.178,-5.584 -0.736,-0.964 -1.371,-1.163 -2.128,-0.667 -1.628,1.067 -1.656,4.532 -0.05,6.251 z m 6.769,0.022 c 0.802,0.953 1.401,0.844 2.286,-0.417 1.374,-1.959 0.938,-5.603 -0.721,-6.019 -2.37,-0.595 -3.516,4.117 -1.565,6.436 z m -13.684,0.23 c 0.307,0.308 0.66,0.559 0.785,0.559 2.096,0 2.823,-6.089 0.835,-6.995 -2.345,-1.069 -3.708,4.348 -1.62,6.436 z m -290.734,0.365 c 0.282,0.121 1.537,0.191 2.788,0.155 2.604,-0.074 3.181,-0.394 3.673,-2.037 0.451,-1.505 1.154,-1.88 3.518,-1.876 2.56,0.005 3.085,0.26 3.552,1.73 0.581,1.828 0.977,2.017 4.218,2.017 2.854,0 3.507,-0.2 3.507,-1.073 0,-0.947 -4.409,-30.264 -4.946,-32.889 l -0.259,-1.267 -5.715,0.16 c -3.143,0.088 -5.864,0.217 -6.047,0.287 -0.452,0.174 -2.025,8.967 -4.334,24.235 -1.447,9.568 -1.446,9.919 0.045,10.558 z m 170.918,-0.199 c 0.267,0.322 0.758,0.368 3.19,0.299 3.23,-0.092 3.271,-0.112 3.925,-1.895 0.686,-1.87 1.202,-2.113 4.273,-2.017 3.004,0.094 3.363,0.277 3.832,1.955 0.469,1.675 0.835,1.863 3.784,1.955 2,0.062 2.682,10e-4 3.106,-0.277 l 0.544,-0.356 -0.549,-3.239 c -0.302,-1.781 -1.079,-6.614 -1.726,-10.739 -0.647,-4.125 -1.67,-10.333 -2.275,-13.797 l -1.098,-6.296 -4.973,0.169 c -5.882,0.201 -6.444,0.289 -6.812,1.066 -0.15,0.317 -0.762,3.741 -1.36,7.608 -0.894,5.786 -2.228,13.849 -3.926,23.725 -0.2,1.164 -0.187,1.535 0.065,1.839 z m -167.405,59.591 c 0.077,0.125 1.54,0.168 3.46,0.102 1.829,-0.063 8.23,-0.171 14.224,-0.239 12.388,-0.141 16.3,-0.371 16.917,-0.996 0.656,-0.665 0.892,-3.106 0.894,-9.256 l 0.002,-5.801 -10.782,0 -10.781,0 0,-17.845 0,-17.844 -1.933,0.146 c -1.064,0.08 -3.727,0.206 -5.918,0.278 -2.192,0.073 -4.318,0.183 -4.724,0.244 l -0.74,0.112 -0.136,2.396 c -0.196,3.46 -0.642,48.445 -0.483,48.703 z m 55.536,-0.67 c 5.126,0.776 12.612,-3.199 16.61,-8.819 4.525,-6.363 5.275,-10.46 5.47,-29.878 l 0.125,-12.484 -1.962,0.141 c -1.079,0.078 -3.808,0.212 -6.064,0.297 l -4.101,0.155 -0.15,9.609 c -0.278,17.875 -0.596,20.134 -3.254,23.154 -3.934,4.469 -10.544,1.938 -12.118,-4.638 -0.251,-1.049 -0.408,-4.752 -0.616,-14.576 -0.153,-7.243 -0.364,-13.254 -0.468,-13.359 -0.72,-0.723 -10.461,-0.415 -11.232,0.355 -0.912,0.912 -1.164,18.155 -0.403,27.571 0.937,11.587 8.559,21.018 18.163,22.472 z m -112.727,0.502 c 4.829,0.505 7.764,0.252 7.896,-0.68 0.045,-0.317 0.338,-1.365 0.652,-2.328 1.138,-3.494 1.423,-3.646 6.767,-3.618 5.641,0.029 6.486,0.445 7.178,3.537 0.56,2.504 1.291,2.724 8.66,2.611 6.065,-0.093 5.835,0.032 5.405,-2.944 -0.968,-6.713 -6.742,-35.764 -8.605,-43.303 -0.741,-2.995 -1.357,-3.731 -3.434,-4.102 -1.354,-0.242 -12.614,-0.703 -17.184,-0.703 l -2.872,0 -0.26,1.113 c -0.143,0.613 -1.211,6.756 -2.374,13.653 -3.951,23.438 -6.092,34.124 -7.08,35.337 -0.426,0.523 1.431,1.027 5.251,1.427 z m 186.15,-0.491 c 1.217,0.223 35.23,0.112 35.458,-0.116 0.197,-0.196 0.62,-14.859 0.435,-15.044 -0.09,-0.09 -5.198,-0.237 -11.352,-0.326 -11.541,-0.167 -12.212,-0.228 -12.711,-1.159 -0.995,-1.86 -0.075,-2.134 8.074,-2.403 3.745,-0.124 6.814,-0.24 6.819,-0.259 0.103,-0.364 -0.534,-12.12 -0.663,-12.249 -0.102,-0.102 -2.633,-0.269 -5.625,-0.372 -7.534,-0.26 -8.604,-0.49 -8.604,-1.849 0,-1.457 0.178,-1.484 11.122,-1.648 5.42,-0.081 10.065,-0.207 10.323,-0.28 0.258,-0.074 0.97,-0.198 1.582,-0.277 l 1.113,-0.144 0,-7.508 0,-7.507 -9.668,0.162 c -22.161,0.37 -28.068,0.509 -28.22,0.661 -0.229,0.229 -0.237,46.409 -0.008,48.003 0.247,1.725 0.523,2.057 1.925,2.315 z m -139.107,0.289 6.797,-0.263 0.234,-25.547 0.264,-25.547 -14.092,0 0,25.84 0,25.81 z m 217.266,-7.582 0,8.121 5.566,-0.151 c 3.062,-0.084 8.731,-0.215 12.598,-0.291 l 7.031,-0.14 2.582,-2.633 c 4.065,-4.144 4.842,-6.103 4.89,-12.324 0.045,-5.777 -0.767,-7.494 -6.865,-14.524 -1.859,-2.142 -3.771,-4.77 -3.771,-5.182 0,-0.662 2.841,-1.041 10.547,-1.404 3.029,-0.143 5.602,-0.35 5.718,-0.461 0.243,-0.232 -0.18,-13.985 -0.438,-14.241 -0.466,-0.463 -23.187,-0.134 -24.265,0.351 -4.36,1.965 -8.076,8.392 -8.373,14.485 -0.245,5.036 0.962,7.574 7.297,15.351 2.271,2.789 2.908,3.887 2.494,4.302 -0.238,0.238 -6.085,0.5 -13.312,0.597 l -1.699,0.023 0,8.121 z m -122.315,7.207 c 3.169,0.381 8.253,-0.054 8.977,-0.768 0.549,-0.542 0.85,-2.67 0.884,-6.24 0.034,-3.502 0.28,-7.055 0.505,-7.279 0.28,-0.28 0.817,0.301 4.128,4.467 6.236,7.848 7.879,9.109 12.648,9.707 1.877,0.235 9.274,-0.002 11.003,-0.353 l 0.761,-0.155 0,-7.322 0,-7.322 -4.16,-0.124 c -6.748,-0.201 -7.323,-0.782 -4.158,-4.2 3.974,-4.293 5.381,-7.989 5.381,-14.137 0,-6.547 -1.2,-9.311 -6.377,-14.681 l -2.002,-2.077 -15.634,0 -15.634,0 -0.152,10.254 c -0.083,5.639 -0.221,16.914 -0.306,25.054 l -0.154,14.801 1.852,0.152 c 1.019,0.084 2.116,0.184 2.438,0.223 z m 119.033,-25.172 0,-25.312 -13.125,0 -0.234,24.99 -0.264,25.02 2.11,0.322 0.556,0.059 0.674,0.058 1.67,0.117 1.963,0.059 6.65,0 z M 135.315,270.494 c 1.339,0.455 1.505,-0.37 0.306,-1.523 -3.049,-2.93 -6.266,-4.441 -13.038,-6.122 -7.291,-1.81 -8.83,-2.956 -7.677,-5.715 1.425,-3.41 7.716,-1.337 22.958,7.566 6.609,3.86 8.03,4.544 8.354,4.021 1.058,-1.713 -6.035,-8.036 -12.85,-11.456 -7.525,-3.776 -11.401,-4.061 -25.592,-1.887 -11.7211,1.797 -18.1716,3.191 -21.0164,4.542 -1.6054,0.762 -4.0616,2.726 -4.0616,3.248 0,0.437 2.6207,-0.029 7.0313,-1.248 10.5037,-2.905 13.0507,-3.334 13.9377,-2.346 1.08,1.203 -0.81,2.637 -6.0043,4.557 -4.0357,1.493 -5.4322,2.194 -5.5463,2.786 -0.117,0.608 0.4952,0.534 6.3189,-0.761 12.6907,-2.822 16.9017,-2.582 28.1727,1.609 2.727,1.013 5.748,2.024 6.715,2.246 0.967,0.222 1.863,0.44 1.992,0.483 z m 140.65,-3.63 c 1.193,0.715 1.586,0.755 1.586,0.163 0,-0.584 -0.406,-0.89 -1.438,-1.083 -1.242,-0.232 -1.315,0.22 -0.148,0.92 z m 31.018,22.031 c 0.77,0.77 3.2,-1.767 5.065,-5.286 1.311,-2.476 0.361,-2.387 -2.434,0.229 -2.276,2.128 -3.399,4.289 -2.631,5.057 z m -145.916,37.716 c 0.516,0.102 1.096,0.153 1.289,0.114 6.855,-1.37 -1.316,-8.906 -21.619,-19.939 -7.512,-4.082 -13.205,-7.412 -19.908,-11.644 -9.682,-6.114 -12.608,-7.694 -16.772,-9.052 -7.9529,-2.596 -16.3477,-1.239 -23.1461,3.739 -4.9524,3.627 -3.2293,5.145 2.9297,2.581 17.2424,-7.178 17.8694,-7.089 30.4684,4.292 13.642,12.323 38.635,28.31 46.758,29.909 z m 199.636,-18.154 c -0.371,0.37 12.072,-0.421 14.055,-0.894 4.135,-0.986 5.113,-4.412 1.259,-4.412 l -1.554,0 0.117,-1.041 c 0.117,-1.031 1.039,-3.036 3.436,-7.465 1.909,-3.527 1.86,-5.967 -0.147,-7.381 -1.536,-1.082 -2.17,-0.906 -6.977,1.937 -4.249,2.514 -4.102,2.262 -4.102,7.035 0,4.954 0.018,4.933 -4.126,4.737 -1.598,-0.075 -2.905,-0.105 -2.905,-0.065 0,0.039 0.426,0.354 0.948,0.699 3.894,2.577 4.341,4.522 1.393,6.061 -0.701,0.367 -1.33,0.721 -1.397,0.789 z m -26.809,9.522 c 1.848,1.364 1.988,1.397 1.988,0.473 0,-0.976 -0.567,-2.552 -1.915,-5.331 -2.009,-4.139 -2.615,-4.444 -5.895,-2.963 -4.255,1.921 -5.482,1.156 -7.64,-4.767 -0.802,-2.201 -1.238,-3.073 -1.712,-3.427 l -0.635,-0.475 -1.942,0.509 c -1.067,0.28 -2.838,0.779 -3.933,1.109 -6.919,2.081 -6.226,-0.771 1.196,-4.922 8.213,-4.593 8.608,-5.064 6.518,-7.776 -2.126,-2.762 -4.475,-4.081 -5.782,-3.248 -2.211,1.409 -2.201,2.767 0.022,3.072 3.443,0.472 1.54,2.925 -8.085,10.427 -7.275,5.671 -7.986,6.51 -7.47,8.833 0.82,3.688 1.873,4 2.417,0.715 0.402,-2.432 0.361,-2.437 7.133,0.756 9.661,4.555 10.297,4.738 17.762,5.121 5.54,0.285 5.914,0.373 7.973,1.894 z m 15.379,3.001 c 2.443,0.836 8.197,-0.354 9.9,-2.046 2.311,-2.299 0.092,-3.358 -4.949,-2.362 -4.491,0.887 -7.475,3.544 -4.951,4.408 z m -9.112,3.775 c 2.424,1.907 6.392,-2.618 4.354,-4.963 -0.629,-0.724 -1.83,-0.301 -3.409,1.197 -1.67,1.587 -2.007,2.93 -0.945,3.766 z m -53.444,15.389 c 0.373,0.698 0.766,0.614 3.872,-0.828 3.512,-1.631 6.339,-2.729 11.718,-4.554 7.737,-2.623 15.129,-6.857 14.304,-8.192 -0.305,-0.493 -1.238,-0.202 -6.314,1.971 -2.847,1.219 -7.397,3.056 -10.111,4.081 -11.346,4.287 -14.314,5.944 -13.469,7.522 z m 83.676,-5.652 c 0.322,0.048 0.727,0.049 0.898,0.003 0.172,-0.046 0.409,-0.084 0.528,-0.084 0.374,0 0.232,-0.58 -0.209,-0.855 -1.181,-0.738 -10.357,-1.673 -10.357,-1.055 0,0.239 5.684,1.478 9.14,1.991 z m -99.067,11.843 c 1.489,2.223 2.728,4.043 2.755,4.043 0.027,0 0.863,-0.837 1.857,-1.859 1.104,-1.134 2.579,-2.331 3.787,-3.071 1.089,-0.668 2.135,-1.452 2.326,-1.744 0.242,-0.368 0.669,-0.574 1.397,-0.674 2.031,-0.278 3.533,-1.409 2.893,-2.179 -0.339,-0.408 -1.241,-0.271 -4.073,0.619 -4.738,1.49 -5.274,1.184 -5.272,-3.002 0.003,-4.131 0.755,-7.927 2.279,-11.504 0.674,-1.581 0.784,-2.041 0.563,-2.343 -1.526,-2.08 -2.613,-5.589 -2.779,-8.973 -0.236,-4.81 0.715,-4.937 2.997,-0.399 1.353,2.692 1.346,3.351 -0.039,3.441 -1.37,0.089 -1.817,0.72 -1.401,1.98 0.63,1.909 2.304,2.428 2.064,0.641 -0.105,-0.784 -0.058,-0.933 0.29,-0.933 1.109,0 2.928,-2.741 3.416,-5.15 0.216,-1.062 0.358,-1.306 0.829,-1.416 0.853,-0.201 1.277,-1.268 1.239,-3.119 l -0.033,-1.598 0.889,0.15 0.889,0.151 0.782,-1.482 c 1.008,-1.911 4.633,-5.531 7.29,-7.281 3.061,-2.016 3.527,-2.735 5.289,-8.146 1.693,-5.197 2.856,-7.85 5.321,-12.129 0.981,-1.703 1.079,-1.668 -2.151,-0.762 -4.612,1.295 -5.367,1.037 -5.812,-1.989 -0.33,-2.245 -0.874,-2.774 -4.228,-4.11 -2.902,-1.156 -15.391,-5.619 -15.723,-5.619 -0.023,0 -0.1,0.22 -0.171,0.489 -0.153,0.586 -0.514,0.516 -2.666,-0.514 -1.675,-0.801 -2.651,-1.828 -2.651,-2.791 0,-2.031 -0.615,-2.242 -1.701,-0.583 -0.953,1.457 -1.785,1.621 -2.13,0.418 -0.157,-0.547 -0.417,-0.82 -0.948,-0.995 -0.984,-0.325 -1.308,-0.922 -1.476,-2.716 -0.232,-2.487 -1.113,-2.352 -2.086,0.318 -1.588,4.358 -1.877,4.226 -2.217,-1.009 -0.266,-4.093 -0.265,-3.921 -0.006,-3.761 0.119,0.074 0.407,1.214 0.64,2.534 0.469,2.663 0.704,2.452 0.756,-0.677 0.056,-3.366 0.323,-3.695 1.785,-2.198 1.231,1.26 1.431,1.199 1.728,-0.527 0.751,-4.368 1.161,-18.118 0.558,-18.724 -0.417,-0.42 -1.198,0.214 -3.387,2.748 -2.156,2.497 -3.114,3.057 -5.578,3.259 -4.715,0.386 -5.28,0.56 -8.171,2.514 -5.051,3.416 -7.601,2.859 -13.595,-2.968 -4.293,-4.174 -8.703,-9.73 -8.703,-10.967 0,-0.63 0.451,-0.498 4.258,1.246 3.484,1.596 4.359,1.851 4.668,1.364 0.873,-1.378 -1.702,-3.484 -6.178,-5.056 -2.617,-0.918 -4.988,-0.931 -15.756,-0.086 -5.156,0.404 -10.929,0.799 -12.829,0.877 l -3.454,0.141 -1.288,-2.74 c -3.604,-7.67 -4.765,-12.022 -3.738,-14.008 0.644,-1.245 2.15,-0.615 8.568,3.581 5.319,3.477 5.353,3.452 1.752,-1.318 -2.978,-3.945 -3.498,-4.935 -3.006,-5.723 0.508,-0.812 2.286,-3.09 4.913,-6.297 3.504,-4.277 3.62,-4.725 1.733,-6.693 -2.118,-2.209 -5.548,-4.122 -10.581,-5.899 -3.118,-1.101 -5.725,-2.446 -7.705,-3.973 -4.104,-3.166 -4.002,-3.147 -5.381,-1.024 -1.721,2.65 -1.602,2.539 -2.737,2.539 -1.777,0 -2.316,-0.659 -6.042,-7.383 -2.638,-4.761 -3.413,-5.127 -12.164,-5.738 -3.813,-0.266 -4.446,-0.425 -4.987,-1.25 -0.786,-1.199 0.265,-1.801 3.145,-1.801 1.907,0 2.356,-0.206 2.356,-1.08 0,-0.855 -2.109,-2.554 -3.918,-3.156 -2.701,-0.898 -3.621,-2.628 -2.794,-5.253 0.529,-1.676 0.475,-2.774 -0.229,-4.691 -1.14,-3.103 -1.589,-2.756 4.211,-3.25 4.674,-0.399 4.922,-0.53 2.967,-1.572 -1.801,-0.96 -3.753,-2.752 -3.753,-3.446 0,-1.371 2.243,-1.538 7.116,-0.53 4.004,0.828 4.081,0.639 1.029,-2.55 -4.034,-4.214 -3.725,-5.161 1.065,-3.27 4.702,1.856 8.08,0.821 15.485,-4.743 6.849,-5.147 7.217,-6.533 1.486,-5.598 -6.631,1.082 -6.863,0.891 -6.242,-5.158 0.534,-5.196 -0.333,-5.548 -4.988,-2.028 -4.422,3.344 -6.773,3.81 -16.317,3.23 l -2.422,-0.147 -1.529,-2.813 c -4.034,-7.418 -6.93,-10.409 -13.503,-13.948 -2.255,-1.214 -3.389,-1.453 -4.957,-1.045 -2.205,0.574 -2.669,0.097 -2.085,-2.143 0.48,-1.837 0.299,-2.187 -0.726,-1.405 -1.049,0.8 -0.926,0.895 -1.781,-1.37 -1.196,-3.169 -2.401,-4.278 -8.428,-7.7535 -7.54,-4.3489 -11.739,-7.7587 -15.699,-12.7496 -8.246,-10.3907 -17.352,-30.9527 -13.7079,-30.9527 1.1927,0 3.3107,3.5123 6.0779,10.0781 5.859,13.9036 13.197,22.81 20.198,24.5138 3.086,0.7509 5.541,2.0728 5.363,2.8868 -0.181,0.8219 0.295,1.223 2.094,1.7644 3.038,0.9141 4.433,0.6568 4.975,-0.9171 0.441,-1.2808 0.625,-1.4146 1.468,-1.0658 0.947,0.3925 0.905,0.839 -0.222,2.3492 -1.205,1.616 -1.192,1.7043 0.41,2.7469 3.155,2.0523 5.581,4.0285 11.541,9.4015 5.443,4.907 9.149,6.744 24.401,12.095 l 2.485,0.872 5.132,-1.317 c 7.964,-2.042 13.686,-3.318 17.906,-3.992 7.232,-1.155 8.487,-1.581 7.819,-2.652 -0.932,-1.497 -2.96,-1.735 -8.17,-0.961 -6.627,0.984 -7.958,-0.235 -3.765,-3.446 1.437,-1.099 2.761,-1.921 8.31,-5.155 4.699,-2.7393 5.503,-4.4495 2.351,-5.0022 -5.822,-1.0209 -7.494,-0.758 -9.592,1.5087 -0.611,0.6602 -1.652,1.2915 -2.129,1.2915 -0.581,0 0.043,-2.2031 1.449,-5.1173 0.788,-1.6326 1.577,-3.301 1.753,-3.7074 l 0.321,-0.739 -2.63,-1.2821 c -1.447,-0.7051 -3.633,-2.0321 -4.857,-2.9487 -2.442,-1.8273 -7.669,-4.7466 -12.774,-7.1339 -10.449,-4.8863 -11.682,-5.243 -19.219,-5.558 -6.894,-0.2881 -6.915,-0.2953 -14.062,-4.7988 -9.9,-6.2381 -16.659,-8.6577 -19.717,-7.0586 -2.182,1.1409 -3.458,-0.3849 -1.602,-1.915 1.056,-0.8707 1.052,-0.8741 -3.056,-2.2593 -1.805,-0.6085 -3.756,-1.4035 -4.336,-1.7667 -0.58,-0.3631 -1.74,-0.9589 -2.578,-1.324 -1.999,-0.871 -3.896,-1.9803 -6.273,-3.6683 -2.546,-1.8078 -4.7742,-2.855 -5.6263,-2.6439 l -0.6399,0.1585 0.7837,-0.8126 c 0.9962,-1.033 0.9105,-1.4196 -0.5855,-2.639 -2.6548,-2.1642 -10.7037,-4.3423 -12.4979,-3.3821 -1.9865,1.0631 -1.6666,5.7659 1.1918,17.5199 0.6439,2.6479 1.2334,5.4851 1.31,6.3048 l 0.1392,1.4905 -1.3111,0 c -2.0733,0 -2.6313,-1.0242 -4.3423,-7.9688 -3.6136,-14.6676 -1.3839,-22.7552 6.4386,-23.355 3.486,-0.2673 4.4685,0.1615 10.0622,4.3915 8.2615,6.2475 14.1645,9.4907 27.1705,14.9277 17.249,7.2108 25.719,10.1609 37.737,13.1439 9.25,2.2958 10.662,2.347 10.662,0.3869 0,-1.0203 -0.417,-1.2562 -2.661,-1.5079 -2.365,-0.2652 -3.667,-0.9904 -3.667,-2.0415 0,-1.1514 0.624,-1.2801 8.496,-1.7495 17.854,-1.0648 21.609,-1.8205 19.336,-3.8916 -1.391,-1.2661 -3.189,-1.3745 -7.054,-0.4252 l -2.516,0.6181 -0.471,-0.5417 c -0.483,-0.5552 -2.277,-4.0278 -3.216,-6.2252 -0.667,-1.5603 -0.572,-1.5782 -3.454,0.6532 -4.394,3.4029 -5.91,3.8913 -5.282,1.7018 1.878,-6.5495 21.035,-25.5442 34.716,-34.4232 30.303,-19.665134 51.247,-22.36384 77.067,-9.93 15.369,7.4013 28.29,18.0237 41.274,33.9321 8.187,10.0308 13.485,14.4939 23.909,20.1396 11.559,6.2605 16.717,12.3092 18.09,21.2161 0.58,3.7569 -0.677,3.1265 -4.786,-2.4003 -3.792,-5.1001 -6.628,-7.6813 -9.043,-8.2305 -1.97,-0.4481 -8.475,2.8357 -12.011,6.0635 -0.696,0.6361 -2.126,1.5885 -3.177,2.1163 -1.487,0.7472 -2.208,1.2962 -3.252,2.4785 -1.544,1.7478 -1.889,1.9413 -2.489,1.3983 -0.823,-0.7453 -0.217,-2.6783 2.122,-6.7662 2.845,-4.9728 4.006,-7.703 4.006,-9.4211 0,-1.1969 -0.478,-1.1728 -2.772,0.14 -6.473,3.7046 -13.341,3.5085 -18.439,-0.5266 -0.902,-0.7142 -3.592,-2.6911 -5.976,-4.3931 -5.251,-3.7474 -8.91,-6.452 -12.188,-9.008 -6.277,-4.895 -9.823,-6.5763 -10.033,-4.7566 -0.109,0.9387 1.258,2.3005 4.468,4.4511 7.047,4.7207 12.831,13.0483 12.831,18.4723 0,3.0738 -2.266,2.8131 -7.795,-0.8967 -4.731,-3.1741 -9.382,-5.4668 -14.354,-7.0756 -3.309,-1.0709 -3.962,-1.0426 -6.8,0.2952 -4.371,2.0613 -6.731,2.0149 -14.165,-0.2781 -5.29,-1.6316 -5.46,-1.5934 -3.667,0.8243 1.887,2.5437 1.531,2.9064 -2.861,2.9116 l -2.884,0.0035 -1.524,0.9192 c -1.737,1.0475 -2.003,1.1041 -6.687,1.4217 -5.523,0.3746 -5.961,0.6566 -4.241,2.7313 1.903,2.2947 1.826,2.6548 -0.611,2.8782 -2.102,0.1926 -2.155,0.2623 -1.345,1.7589 0.93,1.7203 0.778,1.8633 -1.825,1.7148 -2.582,-0.1472 -2.933,-0.026 -4.635,1.5977 -1.643,1.5668 -2.577,1.6798 -4.653,0.5627 -1.572,-0.8459 -1.825,-0.8589 -2.014,-0.1034 -0.438,1.7439 2.512,4.4371 7.03,6.4185 4.225,1.853 4.663,1.7363 17.953,-4.7755 16.419,-8.0457 18.241,-8.644 26.367,-8.6595 6.365,-0.0123 8.391,0.5894 12.14,3.6053 5.738,4.6161 9.598,11.0383 8.003,13.3154 -0.554,0.791 -2.402,0.6956 -6.083,-0.3141 -9.768,-2.6788 -14.058,-2.2522 -33.513,3.3325 -16.35,4.6932 -17.587,4.9182 -25.782,4.6862 -10.39,-0.293 -12.746,-1.457 -18.162,-8.9725 -3.661,-5.0804 -3.822,-5.1731 -3.604,-2.0735 l 0.157,2.2314 -1.136,1.6472 c -1.763,2.5571 -1.581,3.2128 2.345,8.4494 4.844,6.461 5.54,6.666 17.119,5.037 18.695,-2.63 25.917,-3.041 27.396,-1.562 0.783,0.782 0.179,1.519 -2.394,2.922 -3.407,1.858 -3.331,2.209 0.709,3.272 3.114,0.819 5.303,1.912 9.437,4.711 1.938,1.313 5.053,3.424 6.922,4.692 5.35,3.629 7.399,4.435 10.369,4.077 4.876,-0.587 11.663,-5.221 11.663,-7.964 0,-1.16 -0.417,-1.105 -4.453,0.585 -3.114,1.304 -5.951,1.13 -8.12,-0.497 -2.126,-1.595 -1.316,-2.137 6.01,-4.019 5.356,-1.377 7.726,-2.264 8.854,-3.315 1.29,-1.201 0.704,-1.32 -8.662,-1.751 -10.294,-0.474 -10.921,-0.612 -15.594,-3.434 -4.924,-2.975 -5.45,-4.725 -2.261,-7.5306 3.847,-3.3853 7.332,-2.0555 10.784,4.1156 2.556,4.569 2.895,4.666 8.8,2.534 12.064,-4.356 20.434,-3.028 18.22,2.892 -0.572,1.528 -0.48,1.77 0.674,1.767 2.117,-0.005 13.638,-3.57 13.638,-4.22 0,-0.266 -0.714,-0.403 -4.218,-0.808 -7.15,-0.827 -7.438,-2.193 -0.818,-3.877 6.474,-1.6458 7.331,-3.2753 1.521,-2.889 -1.612,0.1071 -4.248,0.1948 -5.86,0.1948 l -2.929,0 -0.071,-0.7304 c -0.308,-3.1589 9.653,-4.528 14.165,-1.947 1.357,0.7767 4.304,4.2056 4.304,5.0086 0,1.412 3.406,7.285 5.353,9.233 2.902,2.901 4.443,3.278 7.538,1.841 3.981,-1.849 5.742,-2.058 6.809,-0.808 5.879,6.89 6.359,7.204 11.041,7.206 2.069,0.001 3.094,0.115 4.219,0.467 2.288,0.718 2.474,0.671 4.186,-1.057 1.494,-1.507 1.531,-1.527 2.51,-1.38 1.207,0.181 2.172,-0.03 2.172,-0.475 0,-1.578 -9.544,-8.636 -14.426,-10.669 -3.842,-1.599 -5.474,-1.487 -13.952,0.955 -6.116,1.763 -7.934,1.685 -5.818,-0.248 3.877,-3.541 9.432,-4.591 27.517,-5.2 l 8.203,-0.277 4.804,-2.7342 c 6.334,-3.6044 11.939,-6.5098 15.118,-7.8365 3.234,-1.3503 4.156,-1.9024 4.056,-2.429 -0.122,-0.638 -1.079,-0.6182 -2.032,0.0421 -0.476,0.3305 -2.316,1.0779 -4.088,1.661 -1.772,0.5831 -5.408,2.0217 -8.079,3.1969 -11.575,5.0919 -14.971,5.8605 -14.495,3.2804 0.063,-0.3386 0.181,-1.0374 0.263,-1.553 0.082,-0.5157 0.576,-2.3406 1.099,-4.0555 1.296,-4.2534 1.275,-4.3988 -1.397,-9.751 -4.813,-9.6385 -7.161,-11.974 -17.345,-17.2556 -8.51,-4.4132 -9.109,-4.871 -15.03,-11.4876 C 318.533,30.6192 308.488,21.1014 296.991,13.3925 277.739,0.483216 258.821,-2.97396 237.268,2.47825 228.149,4.78519 208.697,15.9115 197.987,24.9472 c -2.139,1.8051 -5.778,4.7736 -8.086,6.5965 -6.343,5.011 -8.131,6.9258 -12.993,13.9121 -5.35,7.6868 -11.095,15.2628 -13.541,17.8553 -1.76,1.8658 -1.267,1.8235 -6.255,0.5368 -4.121,-1.0632 -11.956,-3.6952 -18.633,-6.2597 -3.029,-1.1635 -6.984,-2.6134 -8.789,-3.2219 -1.804,-0.6086 -3.663,-1.3666 -4.13,-1.6844 -0.466,-0.3179 -2.312,-1.0849 -4.101,-1.7047 -8.254,-2.859 -13.327,-5.3705 -16.495,-8.1673 -0.58,-0.512 -1.709,-1.2266 -2.507,-1.5879 -1.164,-0.5268 -1.546,-0.8397 -1.922,-1.5778 -1.2889,-2.5262 -8.0015,-6.8138 -11.0082,-7.0313 -3.9097,-0.2828 -8.8699,2.584 -10.5537,6.0997 -1.3942,2.9109 -0.575,11.2793 2.205,22.524 2.0649,8.3519 3.0414,9.8266 25.8509,39.0354 l 10.136,12.981 -1.356,1.434 c -0.746,0.788 -3.056,3.226 -5.133,5.417 -10.9155,11.513 -14.4806,16.436 -16.7169,23.086 -2.2752,6.766 -0.7239,6.69 2.9186,-0.142 6.5763,-12.334 19.2063,-26.417 24.0033,-26.764 1.509,-0.109 1.742,-0.018 4.942,1.925 1.096,0.666 2.467,1.413 3.047,1.661 3.674,1.567 7.617,5.241 7.902,7.363 0.6,4.474 -11.159,11.664 -25.454,15.563 -3.944,1.076 -2.477,1.429 3.558,0.857 7.106,-0.674 11.4,-2.677 19.008,-8.87 1.663,-1.352 3.372,-2.637 3.798,-2.855 0.427,-0.217 1.048,-0.718 1.38,-1.113 0.862,-1.025 1.922,-1.306 4.194,-1.115 1.047,0.088 2.272,0.18 2.723,0.204 l 0.821,0.044 -0.046,-1.348 c -0.031,-0.914 0.044,-1.347 0.234,-1.346 0.393,10e-4 1.804,0.887 1.804,1.132 0,0.774 -0.946,2.301 -3.729,6.021 -1.752,2.342 -3.993,5.355 -4.981,6.696 -2.657,3.609 -5.747,6.943 -10.184,10.989 -4.248,3.874 -4.917,4.578 -4.558,4.8 1.466,0.906 17.234,-13.907 19.261,-18.095 0.541,-1.118 0.515,-1.101 1.128,-0.719 0.586,0.367 1.188,-0.102 1.188,-0.924 0,-0.323 0.227,-0.957 0.506,-1.407 l 0.506,-0.819 -0.531,-0.4 c -0.585,-0.441 -0.579,-1.113 0.014,-1.487 1.211,-0.762 1.465,0.778 0.645,3.905 l -0.5,1.908 0.734,1.089 c 1.163,1.723 0.978,2.74 -1.503,8.268 -2.197,4.893 -2.214,5.319 -0.187,4.471 2.06,-0.86 3.074,-0.287 3.832,2.166 2.661,8.616 -0.621,18.342 -6.188,18.342 -0.707,0 -1.332,0.079 -1.388,0.176 -0.334,0.567 0.98,5.224 2.004,7.102 2.961,5.433 15.607,22.253 16.729,22.253 0.491,0 0.4,-0.452 -0.379,-1.875 -2.699,-4.926 -3.006,-5.899 -1.912,-6.053 1.198,-0.17 4.316,2.719 12.856,11.913 5.55,5.975 10.381,10.68 15.608,15.2 4.713,4.077 7.701,7.098 9.77,9.878 2.128,2.858 3.294,4.014 6.337,6.275 6.291,4.677 13.094,12.324 19.897,22.361 2.56,3.778 5.418,7.396 9.04,11.442 6.834,7.634 8.472,11.204 10.322,22.5 1.447,8.832 2.825,12.01 9.047,20.87 5.391,7.677 9.717,14.657 14.156,22.841 1.258,2.32 3.506,6.038 4.994,8.262 z m -53.047,32.889 c 0.641,0.425 1.409,0.773 1.705,0.773 1.41,0 5.455,-2.719 11.302,-7.597 6.221,-5.19 7.739,-5.981 18.488,-9.629 14.498,-4.92 15.009,-5.37 13.858,-12.2 -1.614,-9.574 -4.995,-16.494 -11.374,-23.275 -2.837,-3.015 -2.959,-2.779 -1.268,2.462 1.314,4.07 1.332,4.622 0.188,5.584 -3.062,2.577 -9.005,-1.496 -15.013,-10.288 -3.043,-4.454 -3.071,-4.954 -0.428,-7.518 3.352,-3.251 2.708,-5.101 -2.201,-6.319 -7.883,-1.957 -9.358,0.37 -4.95,7.813 3.252,5.491 4.092,7.998 2.681,7.998 -1.191,0 -3.296,-2.76 -6.882,-9.023 -3.794,-6.627 -5.013,-7.099 -2.793,-1.083 3.032,8.217 5.874,11.988 13.83,18.357 8.747,7.002 10.368,10.956 6.228,15.189 -2.655,2.715 -11.887,3.538 -18.649,1.663 -5.728,-1.588 -14.986,-13.155 -19.385,-24.219 -3.755,-9.443 -7.115,-8.012 -4.921,2.095 1.089,5.019 2.509,7.208 9.808,15.13 6.678,7.247 7.094,8.312 3.924,10.05 -2.327,1.277 -8.672,1.717 -11.721,0.814 -4.614,-1.366 -15.504,-10.87 -16.982,-14.819 -1.846,-4.933 1.076,-11.396 5.151,-11.396 2.609,0 2.909,0.628 3.496,7.32 0.13,1.483 0.365,3.101 0.523,3.596 0.372,1.17 1.871,2.883 2.293,2.622 0.559,-0.346 0.147,-4.077 -0.895,-8.093 -0.518,-1.998 -1.27,-4.898 -1.672,-6.445 -1.119,-4.308 -1.19,-6.876 -0.268,-9.727 1.029,-3.183 1.319,-4.756 2.129,-11.562 0.846,-7.101 1.243,-8.918 2.147,-9.824 1.356,-1.36 2.218,-0.668 3.134,2.516 1.272,4.425 2.663,3.504 2.688,-1.781 0.03,-6.123 -0.421,-6.727 -5.491,-7.352 -5.475,-0.674 -5.868,-1.383 -4.661,-8.387 1.336,-7.748 -1.002,-24.88 -3.277,-24.007 -1.8,0.691 -2.957,10.427 -2.962,24.919 -0.002,4.461 0.044,4.377 -2.457,4.503 l -1.686,0.085 -0.867,-1.012 c -0.852,-0.996 -1.591,-2.209 -4.208,-6.912 -3.125,-5.612 -5.104,-7.124 -7.834,-5.979 -1.178,0.493 -0.973,1.037 1.596,4.246 4.553,5.689 7.073,11.375 9.575,21.609 2.213,9.054 1.971,14.016 -0.683,14.016 -1.993,0 -2.477,-1.286 -4.566,-12.126 -0.972,-5.043 -1.058,-5.105 -3.055,-2.217 -2.217,3.206 -2.252,3.19 -5.97,-2.649 -5.045,-7.921 -7.849,-10.976 -9.495,-10.345 -1.235,0.474 0.205,3.915 5.07,12.118 3.515,5.926 3.855,7.016 2.191,7.016 -1.549,0 -2.512,-0.827 -6.808,-5.844 -5.891,-6.881 -14.177,-13.876 -18.031,-15.222 -3.743,-1.307 -21.05,-1.689 -22.248,-0.491 -0.847,0.848 2.898,2.795 16.037,8.336 13.536,5.709 21.934,11.272 31.635,20.956 7.287,7.276 10.321,12.081 15.02,23.789 4.521,11.265 10.024,21.173 16.828,30.295 3.354,4.497 3.547,4.601 9.209,4.953 4.383,0.273 4.592,0.357 8.901,3.578 1.595,1.192 3.424,2.515 4.066,2.94 z m -109.507,178.684 0,18.427 0.996,-0.119 c 0.548,-0.066 2.088,-0.215 3.422,-0.331 2.933,-0.256 2.546,0.246 2.87,-3.728 0.31,-3.808 0.681,-5.933 1.056,-6.056 0.286,-0.094 1.934,2.227 3.811,5.365 2.055,3.435 2.623,3.703 7.851,3.705 l 3.481,10e-4 -0.102,-4.511 c -0.13,-5.694 -0.035,-5.509 -3.034,-5.929 -1.082,-0.152 -2.071,-0.796 -2.068,-1.346 0.002,-0.334 0.308,-0.919 1.563,-2.979 3.504,-5.752 3.151,-13.946 -0.776,-17.997 -1.768,-1.824 -4.824,-2.4 -14.675,-2.766 l -4.395,-0.163 0,18.427 z m 26.419,17.004 c 0.13,0.339 1.176,0.378 10.315,0.378 l 10.171,0 0,-5.133 0,-5.134 -2.754,-0.152 c -7.245,-0.401 -10.606,-0.918 -10.606,-1.633 0,-0.394 0.436,-0.501 3.399,-0.831 1.289,-0.144 2.792,-0.316 3.339,-0.383 l 0.997,-0.122 0,-3.115 c 0,-4.747 -0.075,-4.854 -3.689,-5.298 -2.513,-0.309 -3.687,-0.642 -4.179,-1.185 -0.771,-0.853 1.134,-1.239 8.13,-1.647 l 4.833,-0.282 0.141,-1.547 c 0.077,-0.85 0.213,-3.269 0.301,-5.374 l 0.161,-3.828 -9.587,0.146 c -5.274,0.08 -10.029,0.199 -10.569,0.265 l -0.981,0.121 -0.168,1.335 c -0.348,2.761 0.311,32.285 0.746,33.419 z"
       inkscape:connector-curvature="0"
       style="fill:#FFF;stroke:#000000;stroke-width:0.125;stroke-linejoin:round" />
  </g>
</svg>
